<?xml version="1.0" encoding="UTF-8"?>
<svg id="Layer_2" data-name="Layer 2" xmlns="http://www.w3.org/2000/svg" viewBox="0 0 517.23 123.24">
  <defs>
    <style>
      .cls-1 {
        fill: #00cf77;
        stroke-width: 0px;
      }
    </style>
  </defs>
  <g id="Layer_1-2" data-name="Layer 1">
    <g>
      <polygon class="cls-1" points="436.98 117.71 435.89 118.11 436.98 120.23 436.98 117.71"/>
      <g>
        <g>
          <path class="cls-1" d="M181.94,31.74c2.04,1.25,3.62,2.99,4.75,5.22,1.13,2.23,1.69,4.75,1.69,7.55s-.85,5.55-2.56,7.99c-1.71,2.44-3.83,4.38-6.36,5.81-2.53,1.43-4.95,2.14-7.25,2.14-1.21,0-2.39-.06-3.53-.19-1.97-.13-3.47-.19-4.48-.19h-5.05v-1.37l3.57-2.81v-22.7l-4.02-1.29.87-1.71h4.59c2.38,0,4.71-.08,6.99-.23,1.72-.1,2.97-.15,3.76-.15v.04c2.66,0,5,.63,7.04,1.88ZM178.09,56.02c1.44-.96,2.58-2.3,3.42-4.01.84-1.71,1.25-3.63,1.25-5.75,0-2.56-.39-4.88-1.18-6.97-.78-2.09-1.99-3.75-3.61-4.99-1.62-1.24-3.63-1.86-6.04-1.86-1.49,0-2.85.43-4.06,1.29v22.85c1.54.61,3.34.91,5.39.91v-.04c1.77,0,3.38-.48,4.82-1.44Z"/>
          <path class="cls-1" d="M211.4,60.04h-7.52v-3.3l-4.29,3.38c-.51.2-1.14.3-1.9.3-2.23,0-3.83-.55-4.82-1.65s-1.48-2.44-1.48-4.01c0-.91.32-1.82.95-2.71.63-.9,1.56-1.75,2.77-2.56h8.77v-2.05c0-2.96-1.58-4.44-4.75-4.44-1.59,0-3.59.9-6,2.7l-1.14-1.59,5.43-4.29c1.16-.25,2.43-.38,3.8-.38,2.4,0,4.27.58,5.6,1.75,1.33,1.16,1.99,2.85,1.99,5.05v10.78l3.42,1.33-.84,1.71ZM203.88,54.8v-3.57h-6.61c-.3.38-.52.76-.65,1.14-.13.38-.19.8-.19,1.25,0,.89.24,1.64.72,2.26.48.62,1.11.93,1.9.93,1.49,0,3.1-.67,4.82-2.01Z"/>
          <path class="cls-1" d="M225.53,44.13c-.58.28-1.24.78-1.97,1.52v11.12l5.39,1.59-.83,1.71h-12.87v-1.37l3.38-2.7v-10.33l-3.38-2.01v-1.37l6.76-3.23,1.25,4.59,3.83-3.95c.58-.2,1.26-.3,2.05-.3.94,0,1.75.24,2.45.72.7.48,1.22,1.16,1.58,2.05l-2.73,3.42h-1.63c-.1-.68-.28-1.17-.53-1.46-.25-.29-.61-.44-1.06-.44-.53,0-1.09.14-1.67.42Z"/>
          <path class="cls-1" d="M247.9,58.37l-.87,1.71h-10.86v-1.37l3.38-2.7v-22.85l-3.38-2.35v-1.37l6.68-2.54h1.63v30.22l3.42,1.25ZM260.05,60.08h-6.72l-6.95-10.06,7.02-5.85-3.83-2.62.84-1.71h9.45v1.37l-8.66,7.25,6.15,8.58,3.53,1.33-.84,1.71Z"/>
          <path class="cls-1" d="M301.24,39.2l-1.33.46-5.13-7.52h-4.4v24.9l4.02,1.29-.84,1.71h-11.92v-1.37l3.57-2.81v-23.73h-4.29l-5.13,7.52-1.33-.46v-9.68l2.2.68h22.36l2.2-.68v9.68Z"/>
          <path class="cls-1" d="M316.28,60.04h-10.86v-1.37l3.38-2.7v-10.63l-3.38-2.32v-1.37l6.68-2.58h1.63v18l3.42,1.25-.87,1.71ZM313.17,28.59c.53.59.8,1.32.8,2.18,0,.61-.19,1.18-.57,1.73-.38.54-.86.97-1.44,1.29-.58.32-1.15.47-1.71.47-.81,0-1.48-.29-2.01-.87-.53-.58-.8-1.32-.8-2.2,0-.61.19-1.18.57-1.73.38-.54.86-.97,1.44-1.29.58-.32,1.14-.47,1.67-.47.84,0,1.52.3,2.05.89Z"/>
          <path class="cls-1" d="M357.17,60.04h-7.52v-12.76c0-1.32-.21-2.24-.63-2.77-.42-.53-1.15-.8-2.18-.8-.73,0-1.47.14-2.2.42-.73.28-1.58.81-2.54,1.59v11.35l3.38,1.25-.84,1.71h-7.48v-12.76c0-1.32-.21-2.24-.63-2.77-.42-.53-1.15-.8-2.18-.8-.73,0-1.47.14-2.2.42-.73.28-1.57.81-2.51,1.59v11.39l3.34,1.25-.83,1.71h-10.82v-1.37l3.38-2.7v-10.33l-3.38-2.01v-1.37l6.76-3.23,1.29,4.78,4.94-4.14c.58-.2,1.28-.3,2.09-.3,1.47,0,2.69.39,3.66,1.16.97.77,1.6,1.84,1.88,3.21l4.86-4.06c.58-.2,1.28-.3,2.09-.3,1.75,0,3.13.53,4.16,1.58,1.02,1.05,1.54,2.47,1.54,4.27v11.81l3.42,1.25-.84,1.71Z"/>
          <path class="cls-1" d="M375.05,60.08c-1.09.23-2.4.34-3.95.34-1.7,0-3.22-.44-4.57-1.31-1.35-.87-2.42-2.06-3.19-3.55-.77-1.49-1.16-3.15-1.16-4.97,0-1.97.6-3.82,1.8-5.52,1.2-1.71,2.71-3.08,4.54-4.1,1.82-1.03,3.58-1.54,5.28-1.54,2.45,0,4.36.96,5.71,2.89,1.35,1.92,2.02,4.49,1.99,7.71h-13.97c.18,2.03.76,3.68,1.75,4.95.99,1.28,2.33,1.92,4.02,1.92s4.05-1.19,7.14-3.57l1.14,1.56-6.53,5.2ZM367.53,48.27h8.54c-.23-1.29-.46-2.29-.7-3-.24-.71-.65-1.28-1.23-1.73-.58-.44-1.43-.66-2.54-.66h.04c-2.61,0-3.97,1.8-4.1,5.39Z"/>
          <path class="cls-1" d="M395.55,53.95c-.76-.57-1.92-1.27-3.49-2.11-1.34-.71-2.41-1.32-3.21-1.82-.8-.51-1.48-1.09-2.05-1.77-.57-.67-.85-1.41-.85-2.22,0-.91.39-1.89,1.18-2.92.78-1.04,1.75-1.91,2.9-2.62,1.15-.71,2.21-1.06,3.17-1.06,1.19,0,2.57.15,4.14.44,1.57.29,2.71.61,3.42.97v5.96h-1.63c-.78-1.49-1.7-2.66-2.73-3.51-1.04-.85-2.11-1.27-3.23-1.27-.73,0-1.32.2-1.77.59-.44.39-.66.88-.66,1.46,0,.73.39,1.39,1.18,1.97.78.58,2,1.32,3.64,2.2,1.29.66,2.33,1.23,3.11,1.73.78.49,1.46,1.06,2.01,1.71.56.65.83,1.36.83,2.14,0,.94-.41,1.92-1.23,2.94-.82,1.02-1.82,1.89-3,2.6-1.18.71-2.26,1.06-3.25,1.06-1.27,0-2.78-.15-4.54-.46-1.76-.3-3.01-.62-3.74-.95v-6h1.63c.86,1.52,1.89,2.7,3.08,3.55,1.19.85,2.39,1.27,3.61,1.27.78,0,1.42-.2,1.9-.61.48-.4.72-.89.72-1.44,0-.66-.38-1.27-1.14-1.84Z"/>
          <path class="cls-1" d="M428.65,60h-11.92v-1.37l3.57-2.81v-22.63l-4.02-1.29.87-1.71h11.92v1.37l-3.61,2.85v22.59l4.02,1.29-.83,1.71Z"/>
          <path class="cls-1" d="M457.01,60.08h-7.48v-12.68c0-1.34-.22-2.28-.65-2.83-.43-.54-1.18-.82-2.24-.82-.78,0-1.57.14-2.35.42-.78.28-1.7.81-2.73,1.59v11.35l3.42,1.25-.87,1.71h-10.86v-1.37l3.38-2.7v-10.33l-3.38-2.01v-1.37l6.76-3.23,1.33,4.82,5.24-4.18c.58-.2,1.29-.3,2.13-.3,1.77,0,3.18.53,4.21,1.58,1.04,1.05,1.56,2.47,1.56,4.27v11.81l3.42,1.29-.87,1.71Z"/>
        </g>
        <path class="cls-1" d="M64.5,86.9c-2.69-2.58-6.02-4.94-10-7.08-3.98-2.15-9.35-4.79-16.13-7.94-8.06-3.72-14.59-6.96-19.59-9.73-5-2.77-9.25-6.03-12.74-9.8-3.49-3.77-5.24-7.94-5.24-12.52s2.28-9.89,6.85-15.38c4.57-5.48,10.18-10.11,16.85-13.88,6.66-3.77,12.79-5.65,18.38-5.65,6.77,0,14.65.72,23.62,2.15,8.98,1.43,15.56,2.96,19.75,4.58v28.47h-7.9c-5.05-7.73-10.64-13.74-16.77-18.03-6.13-4.29-12.58-6.44-19.35-6.44-5.81,0-10.38,1.6-13.71,4.79-3.33,3.2-5,7.32-5,12.38,0,3.15,1.37,6.08,4.11,8.8,2.74,2.72,6.15,5.18,10.24,7.37,4.08,2.2,9.57,4.86,16.45,8.01,8.17,3.82,14.65,7.06,19.43,9.73,4.78,2.67,8.87,5.82,12.26,9.44,3.39,3.63,5.08,7.68,5.08,12.16,0,4.77-2.45,9.9-7.34,15.38-4.89,5.49-10.88,10.11-17.98,13.88-7.1,3.77-13.55,5.65-19.35,5.65-7.1,0-15.54-.72-25.32-2.15-9.78-1.43-16.83-2.96-21.12-4.58v-28.47h7.9c5.37,7.73,11.47,13.74,18.3,18.03,6.83,4.29,13.84,6.44,21.04,6.44,4.3,0,8.06-.81,11.29-2.43,3.23-1.62,5.7-3.74,7.42-6.37,1.72-2.62,2.58-5.46,2.58-8.51s-1.35-5.72-4.03-8.3Z"/>
        <g>
          <path class="cls-1" d="M194.14,121.69c-2.51.47-5.55.7-9.11.7-3.91,0-7.43-.89-10.56-2.68-3.13-1.79-5.58-4.21-7.36-7.27-1.78-3.06-2.67-6.45-2.67-10.18,0-4.04,1.39-7.81,4.16-11.31,2.77-3.5,6.26-6.3,10.47-8.39,4.21-2.1,8.26-3.15,12.18-3.15,5.66,0,10.06,1.97,13.18,5.91,3.12,3.94,4.66,9.2,4.6,15.78h-32.24c.41,4.15,1.75,7.53,4.03,10.14,2.28,2.62,5.37,3.93,9.29,3.93s9.34-2.44,16.47-7.31l2.63,3.19-15.07,10.65ZM176.79,97.51h19.71c-.53-2.64-1.07-4.69-1.62-6.14-.56-1.45-1.5-2.63-2.85-3.54-1.34-.91-3.3-1.36-5.87-1.36h.09c-6.02,0-9.17,3.68-9.46,11.04Z"/>
          <path class="cls-1" d="M241.18,89.04c-1.34.57-2.86,1.61-4.56,3.11v22.77l12.44,3.26-1.93,3.5h-29.7v-2.8l7.8-5.52v-21.14l-7.8-4.12v-2.8l15.59-6.61,2.89,9.4,8.85-8.08c1.34-.41,2.92-.62,4.73-.62,2.16,0,4.04.49,5.65,1.48,1.61.98,2.82,2.38,3.64,4.2l-6.31,7h-3.77c-.23-1.4-.64-2.4-1.23-2.99-.58-.6-1.4-.89-2.45-.89-1.23,0-2.51.29-3.85.86Z"/>
          <path class="cls-1" d="M343.42,83.06l-19.71,38.63h-7.53l-8.85-19.2-10.95,19.2h-7.53l-13.58-29.3-8.23-4.27v-2.8l15.86-6.53,3.33,11.74,10.51,22.54,8.32-15.62-2.37-5.13-8.23-4.27v-2.8l15.86-6.53,3.33,11.74,10.25,22,10.25-20.91-12.35-7.85,1.93-3.5,19.71.08v2.8Z"/>
          <path class="cls-1" d="M389.1,82.09c3.12,1.79,5.56,4.21,7.32,7.27,1.75,3.06,2.63,6.45,2.63,10.18,0,4.04-1.39,7.81-4.16,11.31-2.77,3.5-6.26,6.3-10.47,8.39-4.2,2.1-8.26,3.15-12.18,3.15s-7.43-.89-10.56-2.68c-3.12-1.79-5.58-4.21-7.36-7.27-1.78-3.06-2.67-6.45-2.67-10.18,0-4.04,1.39-7.81,4.16-11.31,2.77-3.5,6.26-6.3,10.47-8.39,4.21-2.1,8.26-3.15,12.18-3.15s7.52.89,10.64,2.68ZM363.92,98.53c0,4.82,1.15,8.84,3.46,12.05,2.31,3.21,5.62,4.82,9.94,4.82,3.1,0,5.43-1.04,7.01-3.11,1.58-2.07,2.37-5.1,2.37-9.09,0-4.77-1.15-8.74-3.46-11.93-2.31-3.19-5.59-4.78-9.86-4.78-6.31,0-9.46,4.02-9.46,12.05Z"/>
          <path class="cls-1" d="M444.73,82.09c3.12,1.79,5.56,4.21,7.32,7.27,1.75,3.06,2.63,6.45,2.63,10.18,0,4.04-1.39,7.81-4.16,11.31-2.77,3.5-6.26,6.3-10.47,8.39-4.2,2.1-8.26,3.15-12.18,3.15s-7.43-.89-10.56-2.68c-3.12-1.79-5.58-4.21-7.36-7.27-1.78-3.06-2.67-6.45-2.67-10.18,0-4.04,1.39-7.81,4.16-11.31,2.77-3.5,6.26-6.3,10.47-8.39,4.21-2.1,8.26-3.15,12.18-3.15s7.52.89,10.64,2.68ZM419.55,98.53c0,4.82,1.15,8.84,3.46,12.05,2.31,3.21,5.62,4.82,9.94,4.82,3.1,0,5.43-1.04,7.01-3.11,1.58-2.07,2.37-5.1,2.37-9.09,0-4.77-1.15-8.74-3.46-11.93-2.31-3.19-5.59-4.78-9.86-4.78-6.31,0-9.46,4.02-9.46,12.05Z"/>
          <path class="cls-1" d="M154.19,121.69h-17.26v-25.96c0-2.75-.5-4.68-1.49-5.79-.99-1.11-2.72-1.67-5.17-1.67-1.81,0-3.62.29-5.43.86-1.81.57-3.91,1.66-6.31,3.26v23.24l7.88,2.57-2.01,3.5h-25.06v-2.8l7.8-5.52V17.74l-7.8-4.82v-2.8l15.42-5.21h3.77v83.27l11.56-8.16c1.34-.41,2.98-.62,4.91-.62,4.09,0,7.33,1.08,9.72,3.23,2.39,2.15,3.59,5.07,3.59,8.74v24.17l7.88,2.64-2.01,3.5Z"/>
          <path class="cls-1" d="M509.34,115.55V0h-3.98l-15.42,5.21v2.8l8.01,4.82v68.91c-2.51-1.55-5.26-2.33-8.24-2.33-3.91,0-7.97,1.05-12.18,3.15-4.2,2.1-7.7,4.9-10.47,8.39-2.77,3.5-4.16,7.27-4.16,11.31,0,3.73.86,7.13,2.58,10.18,1.72,3.06,4.12,5.48,7.18,7.27,3.07,1.79,6.53,2.68,10.38,2.68,2.57,0,4.79-.21,6.66-.62l8.24-5.75v5.6h17.26l2.01-3.5-7.88-2.56ZM498.04,112.05c-1.93,1.14-3.68,1.92-5.26,2.33-1.58.42-3.24.62-4.99.62h-.09c-4.03,0-7.13-1.57-9.29-4.7-2.16-3.13-3.24-7.06-3.24-11.78,0-8.03,3.15-12.05,9.46-12.05,3.97,0,7.11.78,9.42,2.33,2.31,1.55,3.64,3.58,3.99,6.06v17.18Z"/>
        </g>
      </g>
    </g>
  </g>
</svg>