<?xml version="1.0" encoding="UTF-8"?>
<svg id="Layer_2" data-name="Layer 2" xmlns="http://www.w3.org/2000/svg" viewBox="0 0 945.93 225.39">
  <defs>
    <style>
      .cls-1 {
        fill: #26bcca;
        stroke-width: 0px;
      }
    </style>
  </defs>
  <g id="Layer_1-2" data-name="Layer 1">
    <g>
      <polygon class="cls-1" points="799.17 215.28 797.18 216.01 799.17 219.89 799.17 215.28"/>
      <g>
        <g>
          <path class="cls-1" d="M332.74,58.04c3.73,2.29,6.62,5.47,8.68,9.55,2.06,4.07,3.09,8.68,3.09,13.82s-1.56,10.15-4.69,14.61c-3.12,4.47-7,8.01-11.63,10.62-4.63,2.62-9.05,3.92-13.26,3.92-2.22,0-4.37-.12-6.46-.35-3.61-.23-6.34-.35-8.19-.35h-9.23v-2.5l6.53-5.14v-41.52l-7.36-2.36,1.6-3.12h8.4c4.35,0,8.61-.14,12.78-.42,3.15-.18,5.44-.28,6.87-.28v.07c4.86,0,9.15,1.15,12.88,3.44ZM325.7,102.45c2.64-1.76,4.72-4.2,6.25-7.32,1.53-3.12,2.29-6.63,2.29-10.52,0-4.67-.72-8.92-2.15-12.74-1.44-3.82-3.63-6.86-6.6-9.13-2.96-2.27-6.64-3.4-11.04-3.4-2.73,0-5.21.79-7.43,2.36v41.8c2.82,1.11,6.11,1.67,9.86,1.67v-.07c3.24,0,6.18-.88,8.82-2.64Z"/>
          <path class="cls-1" d="M386.61,109.81h-13.75v-6.04l-7.85,6.18c-.93.37-2.08.56-3.47.56-4.07,0-7.01-1.01-8.82-3.02-1.81-2.01-2.71-4.45-2.71-7.33,0-1.67.58-3.32,1.74-4.96,1.16-1.64,2.85-3.2,5.07-4.69h16.04v-3.75c0-5.42-2.89-8.12-8.68-8.12-2.92,0-6.57,1.64-10.97,4.93l-2.08-2.92,9.93-7.85c2.13-.46,4.44-.69,6.94-.69,4.4,0,7.81,1.07,10.24,3.19,2.43,2.13,3.64,5.21,3.64,9.23v19.72l6.25,2.43-1.53,3.12ZM372.86,100.22v-6.53h-12.08c-.56.69-.95,1.39-1.18,2.08-.23.69-.35,1.46-.35,2.29,0,1.62.44,3,1.32,4.13.88,1.13,2.04,1.7,3.47,1.7,2.73,0,5.67-1.23,8.82-3.68Z"/>
          <path class="cls-1" d="M412.46,80.71c-1.07.51-2.27,1.44-3.61,2.78v20.34l9.86,2.92-1.53,3.12h-23.54v-2.5l6.18-4.93v-18.89l-6.18-3.68v-2.5l12.36-5.9,2.29,8.4,7.01-7.22c1.06-.37,2.31-.56,3.75-.56,1.71,0,3.2.44,4.48,1.32,1.27.88,2.23,2.13,2.88,3.75l-5,6.25h-2.99c-.19-1.25-.51-2.14-.97-2.67-.46-.53-1.11-.8-1.94-.8-.97,0-1.99.26-3.06.76Z"/>
          <path class="cls-1" d="M453.38,106.75l-1.6,3.12h-19.86v-2.5l6.18-4.93v-41.8l-6.18-4.3v-2.5l12.22-4.65h2.99v55.27l6.25,2.29ZM475.6,109.87h-12.29l-12.71-18.4,12.84-10.69-7.01-4.79,1.53-3.12h17.29v2.5l-15.83,13.26,11.25,15.69,6.46,2.43-1.53,3.12Z"/>
          <path class="cls-1" d="M550.93,71.69l-2.43.83-9.37-13.75h-8.05v45.55l7.36,2.36-1.53,3.12h-21.8v-2.5l6.53-5.14v-43.39h-7.85l-9.37,13.75-2.43-.83v-17.7l4.03,1.25h40.89l4.03-1.25v17.7Z"/>
          <path class="cls-1" d="M578.42,109.81h-19.86v-2.5l6.18-4.93v-19.44l-6.18-4.24v-2.5l12.22-4.72h2.99v32.91l6.25,2.29-1.6,3.12ZM572.73,52.28c.97,1.09,1.46,2.42,1.46,3.99,0,1.11-.35,2.16-1.04,3.16-.69,1-1.57,1.78-2.64,2.36-1.07.58-2.11.87-3.12.87-1.48,0-2.71-.53-3.68-1.6-.97-1.06-1.46-2.41-1.46-4.03,0-1.11.35-2.16,1.04-3.16.69-.99,1.57-1.78,2.64-2.36,1.06-.58,2.08-.87,3.06-.87,1.53,0,2.78.54,3.75,1.63Z"/>
          <path class="cls-1" d="M653.2,109.81h-13.75v-23.33c0-2.41-.38-4.1-1.15-5.07-.76-.97-2.09-1.46-3.99-1.46-1.34,0-2.68.26-4.03.76-1.34.51-2.89,1.48-4.65,2.92v20.76l6.18,2.29-1.53,3.12h-13.68v-23.33c0-2.41-.38-4.1-1.15-5.07-.76-.97-2.1-1.46-3.99-1.46-1.34,0-2.69.26-4.03.76-1.34.51-2.87,1.48-4.58,2.92v20.83l6.11,2.29-1.53,3.12h-19.79v-2.5l6.18-4.93v-18.89l-6.18-3.68v-2.5l12.36-5.9,2.36,8.75,9.03-7.57c1.06-.37,2.34-.56,3.82-.56,2.68,0,4.92.71,6.7,2.12,1.78,1.41,2.93,3.37,3.44,5.87l8.89-7.43c1.06-.37,2.34-.56,3.82-.56,3.19,0,5.73.96,7.6,2.88,1.87,1.92,2.81,4.52,2.81,7.81v21.59l6.25,2.29-1.53,3.12Z"/>
          <path class="cls-1" d="M685.9,109.87c-1.99.42-4.4.62-7.22.62-3.1,0-5.89-.8-8.37-2.4-2.48-1.6-4.42-3.76-5.83-6.49-1.41-2.73-2.12-5.76-2.12-9.1,0-3.61,1.1-6.98,3.3-10.1,2.2-3.12,4.96-5.62,8.3-7.5,3.33-1.87,6.55-2.81,9.65-2.81,4.49,0,7.97,1.76,10.45,5.28,2.47,3.52,3.69,8.22,3.65,14.09h-25.55c.32,3.7,1.39,6.72,3.19,9.06,1.81,2.34,4.26,3.51,7.36,3.51s7.4-2.18,13.05-6.53l2.08,2.85-11.94,9.51ZM672.16,88.28h15.62c-.42-2.36-.85-4.19-1.28-5.49-.44-1.3-1.19-2.35-2.26-3.16-1.07-.81-2.62-1.21-4.65-1.21h.07c-4.77,0-7.27,3.29-7.5,9.86Z"/>
          <path class="cls-1" d="M723.4,98.66c-1.39-1.04-3.52-2.33-6.39-3.85-2.45-1.3-4.41-2.41-5.87-3.33-1.46-.93-2.71-2-3.75-3.23-1.04-1.23-1.56-2.58-1.56-4.06,0-1.67.72-3.45,2.15-5.35,1.43-1.9,3.2-3.49,5.31-4.79,2.11-1.3,4.04-1.94,5.8-1.94,2.18,0,4.7.27,7.57.8,2.87.53,4.95,1.12,6.25,1.77v10.9h-2.99c-1.43-2.73-3.1-4.87-5-6.42-1.9-1.55-3.87-2.33-5.9-2.33-1.34,0-2.42.36-3.23,1.08-.81.72-1.22,1.61-1.22,2.67,0,1.34.72,2.55,2.15,3.61,1.43,1.07,3.66,2.41,6.67,4.03,2.36,1.2,4.26,2.26,5.69,3.16,1.43.9,2.66,1.94,3.68,3.12,1.02,1.18,1.53,2.49,1.53,3.92,0,1.71-.75,3.51-2.26,5.38-1.5,1.87-3.33,3.46-5.49,4.76-2.15,1.3-4.13,1.94-5.94,1.94-2.31,0-5.08-.28-8.3-.83-3.22-.56-5.5-1.13-6.84-1.74v-10.97h2.99c1.57,2.78,3.45,4.94,5.62,6.49,2.17,1.55,4.37,2.33,6.6,2.33,1.43,0,2.59-.37,3.47-1.11.88-.74,1.32-1.62,1.32-2.64,0-1.2-.69-2.33-2.08-3.37Z"/>
          <path class="cls-1" d="M783.94,109.74h-21.8v-2.5l6.53-5.14v-41.38l-7.36-2.36,1.6-3.12h21.8v2.5l-6.6,5.21v41.31l7.36,2.36-1.53,3.12Z"/>
          <path class="cls-1" d="M835.8,109.87h-13.68v-23.19c0-2.45-.39-4.18-1.18-5.17-.79-.99-2.15-1.49-4.1-1.49-1.44,0-2.87.26-4.3.76-1.44.51-3.1,1.48-5,2.92v20.76l6.25,2.29-1.6,3.12h-19.86v-2.5l6.18-4.93v-18.89l-6.18-3.68v-2.5l12.36-5.9,2.43,8.82,9.58-7.64c1.06-.37,2.36-.56,3.89-.56,3.24,0,5.81.96,7.71,2.88,1.9,1.92,2.85,4.52,2.85,7.81v21.59l6.25,2.36-1.6,3.12Z"/>
        </g>
        <path class="cls-1" d="M117.97,158.93c-4.92-4.71-11.01-9.03-18.29-12.95-7.28-3.92-17.11-8.77-29.49-14.52-14.75-6.8-26.69-12.73-35.83-17.79-9.14-5.06-16.91-11.03-23.3-17.92-6.39-6.89-9.59-14.52-9.59-22.9s4.18-18.1,12.53-28.13c8.35-10.03,18.63-18.49,30.82-25.38,12.19-6.89,23.4-10.34,33.62-10.34,12.39,0,26.79,1.31,43.21,3.92,16.41,2.62,28.46,5.41,36.13,8.37v52.07h-14.45c-9.24-14.13-19.46-25.12-30.67-32.97-11.21-7.85-23-11.77-35.39-11.77-10.62,0-18.98,2.92-25.07,8.77-6.1,5.85-9.14,13.39-9.14,22.63,0,5.76,2.51,11.12,7.52,16.09,5.01,4.97,11.25,9.46,18.73,13.48,7.47,4.01,17.5,8.9,30.08,14.65,14.94,6.98,26.79,12.91,35.54,17.79,8.75,4.89,16.22,10.64,22.41,17.27,6.19,6.63,9.29,14.04,9.29,22.24,0,8.72-4.47,18.1-13.42,28.13-8.95,10.03-19.91,18.49-32.88,25.38-12.98,6.89-24.77,10.34-35.39,10.34-12.98,0-28.41-1.31-46.3-3.92-17.89-2.62-30.77-5.4-38.63-8.37v-52.07h14.45c9.83,14.13,20.99,25.12,33.47,32.97,12.48,7.85,25.31,11.77,38.49,11.77,7.86,0,14.75-1.48,20.64-4.45,5.9-2.96,10.42-6.84,13.57-11.64,3.14-4.8,4.72-9.98,4.72-15.57s-2.46-10.47-7.37-15.18Z"/>
        <g>
          <path class="cls-1" d="M355.05,222.55c-4.59.85-10.15,1.28-16.66,1.28-7.16,0-13.59-1.64-19.31-4.9-5.72-3.27-10.2-7.7-13.46-13.29-3.26-5.59-4.89-11.8-4.89-18.62,0-7.39,2.54-14.29,7.61-20.68,5.07-6.4,11.46-11.51,19.15-15.35s15.11-5.76,22.27-5.76c10.36,0,18.4,3.6,24.11,10.8,5.71,7.2,8.52,16.82,8.41,28.86h-58.96c.75,7.58,3.2,13.77,7.37,18.55,4.17,4.79,9.83,7.18,16.98,7.18s17.09-4.45,30.12-13.36l4.81,5.83-27.56,19.47ZM323.32,178.34h36.05c-.96-4.83-1.95-8.58-2.96-11.23-1.02-2.65-2.75-4.81-5.21-6.47-2.46-1.66-6.04-2.49-10.73-2.49h.16c-11,0-16.77,6.73-17.3,20.18Z"/>
          <path class="cls-1" d="M441.08,162.84c-2.46,1.04-5.23,2.94-8.33,5.69v41.65l22.75,5.97-3.52,6.4h-54.31v-5.12l14.26-10.09v-38.66l-14.26-7.53v-5.12l28.52-12.08,5.29,17.2,16.18-14.78c2.46-.76,5.34-1.14,8.65-1.14,3.95,0,7.39.9,10.33,2.7,2.94,1.8,5.15,4.36,6.65,7.68l-11.54,12.79h-6.89c-.43-2.56-1.18-4.38-2.24-5.47-1.07-1.09-2.56-1.63-4.49-1.63-2.24,0-4.59.52-7.05,1.56Z"/>
          <path class="cls-1" d="M628.06,151.9l-36.05,70.65h-13.78l-16.18-35.11-20.03,35.11h-13.78l-24.83-53.59-15.06-7.82v-5.12l29-11.94,6.09,21.46,19.23,41.22,15.22-28.57-4.33-9.38-15.06-7.82v-5.12l29-11.94,6.09,21.46,18.75,40.23,18.75-38.24-22.59-14.36,3.52-6.4,36.05.14v5.12Z"/>
          <path class="cls-1" d="M711.61,150.12c5.71,3.27,10.17,7.7,13.38,13.29,3.2,5.59,4.81,11.8,4.81,18.62,0,7.39-2.54,14.29-7.61,20.68-5.07,6.4-11.46,11.51-19.15,15.35-7.69,3.84-15.12,5.76-22.27,5.76s-13.59-1.64-19.31-4.9c-5.71-3.27-10.2-7.7-13.46-13.29-3.26-5.59-4.89-11.8-4.89-18.62,0-7.39,2.54-14.29,7.61-20.68,5.07-6.4,11.46-11.51,19.15-15.35,7.69-3.84,15.11-5.76,22.27-5.76s13.75,1.63,19.47,4.9ZM665.55,180.19c0,8.81,2.11,16.16,6.33,22.03,4.22,5.88,10.28,8.81,18.18,8.81,5.66,0,9.93-1.89,12.82-5.69,2.88-3.79,4.33-9.33,4.33-16.63,0-8.72-2.11-15.99-6.33-21.82-4.22-5.83-10.23-8.74-18.03-8.74-11.54,0-17.3,7.34-17.3,22.03Z"/>
          <path class="cls-1" d="M813.35,150.12c5.71,3.27,10.17,7.7,13.38,13.29,3.2,5.59,4.81,11.8,4.81,18.62,0,7.39-2.54,14.29-7.61,20.68-5.07,6.4-11.46,11.51-19.15,15.35-7.69,3.84-15.11,5.76-22.27,5.76s-13.59-1.64-19.31-4.9c-5.71-3.27-10.2-7.7-13.46-13.29-3.26-5.59-4.89-11.8-4.89-18.62,0-7.39,2.54-14.29,7.61-20.68,5.07-6.4,11.46-11.51,19.15-15.35,7.69-3.84,15.11-5.76,22.27-5.76s13.75,1.63,19.47,4.9ZM767.28,180.19c0,8.81,2.11,16.16,6.33,22.03,4.22,5.88,10.28,8.81,18.18,8.81,5.66,0,9.93-1.89,12.82-5.69,2.88-3.79,4.33-9.33,4.33-16.63,0-8.72-2.11-15.99-6.33-21.82-4.22-5.83-10.23-8.74-18.03-8.74-11.54,0-17.3,7.34-17.3,22.03Z"/>
          <path class="cls-1" d="M281.99,222.55h-31.56v-47.48c0-5.02-.91-8.55-2.72-10.59-1.82-2.04-4.97-3.06-9.45-3.06-3.31,0-6.62.52-9.93,1.56-3.31,1.04-7.16,3.03-11.54,5.97v42.5l14.42,4.69-3.68,6.4h-45.82v-5.12l14.26-10.09V32.44l-14.26-8.81v-5.12l28.2-9.52h6.89v152.3l21.15-14.93c2.46-.76,5.45-1.14,8.97-1.14,7.48,0,13.4,1.97,17.78,5.9,4.38,3.93,6.57,9.26,6.57,15.99v44.21l14.42,4.83-3.68,6.4Z"/>
          <path class="cls-1" d="M931.51,211.32V0h-7.28l-28.2,9.52v5.12l14.65,8.81v126.03c-4.59-2.84-9.61-4.26-15.06-4.26-7.16,0-14.58,1.92-22.27,5.76-7.69,3.84-14.07,8.96-19.15,15.35-5.07,6.4-7.61,13.29-7.61,20.68,0,6.82,1.57,13.03,4.73,18.62,3.15,5.59,7.53,10.02,13.14,13.29,5.61,3.27,11.94,4.9,18.99,4.9,4.7,0,8.76-.38,12.18-1.14l15.06-10.52v10.23h31.56l3.68-6.4-14.42-4.69ZM910.84,204.92c-3.52,2.09-6.73,3.51-9.61,4.26-2.88.76-5.93,1.14-9.13,1.14h-.16c-7.37,0-13.03-2.87-16.98-8.6-3.95-5.73-5.93-12.91-5.93-21.54,0-14.69,5.77-22.03,17.3-22.03,7.26,0,13,1.42,17.22,4.26,4.22,2.84,6.65,6.54,7.29,11.09v31.41Z"/>
        </g>
      </g>
    </g>
  </g>
</svg>