<?xml version="1.0" encoding="UTF-8"?>
<svg id="Layer_2" data-name="Layer 2" xmlns="http://www.w3.org/2000/svg" viewBox="0 0 1258 907.48">
  <defs>
    <style>
      .cls-1 {
        fill: #ffffd1;
        stroke-width: 0px;
      }
    </style>
  </defs>
  <g id="Layer_1-2" data-name="Layer 1">
    <g>
      <path class="cls-1" d="M216.5,306.5c0,6.34-1.67,13.17-5,20.5-3.67,8.67-8.67,14.84-15,18.5-11.34,7-19.67,12-25,15h139.5c-2.64-3-9.55-8-20.75-15-8.23-5.66-13.66-12-16.3-19-2.31-14.33-3.95-52.16-3.95-89.5V0c-9,17.34-22.25,34.34-39.75,51-17.5,16.67-34.09,27.84-49.75,33.5,6.08,2.34,12.32,4.5,18.74,6.5,7.43,3,12.33,7.5,14.7,13.5,3.38,8.67,5.06,25.17,5.06,49.5,0,14.67-1.17,23-3.52,25h-116.48v-73c0-9.33,6-18.83,18-28.5,15.33-12.33,23.66-19.5,25-21.5H9c1,1.67,7.5,7,19.5,16,10.66,7.67,16.66,15.84,18,24.5,2,14.67,3,44.84,3,90.5,0,2-.25,12.34-.75,31-.5,18.67-.75,31.84-.75,39.5-.34,30-1.17,48.17-2.5,54.5-5,21.67-17.67,33.34-38,35-4.34,3-6.84,5-7.5,6,16.58,3,34.49,15,53.73,36,15.25,16.33,28.19,34.5,38.8,54.5h6.47v-211h119.49c.67,3.34.84,10.17.51,20.5-1.67,20.67-2.5,38.5-2.5,53.5Z"/>
      <path class="cls-1" d="M830.33,302c0-6.33,2.5-12,7.5-17,6.33-5.66,9.66-9.16,10-10.5-15.67-5-27.17-13.83-34.5-26.5-3.67-6.66-7-16.83-10-30.5-13,18-19.5,38.5-19.5,61.5,0,11,1.33,23.84,4,38.5l-3,1.5h-91v-129c0-21,1.5-34.83,4.5-41.5,2.33-5.66,7.5-10.33,15.5-14,6.66-2.66,12.33-3.66,17-3,0-4.33-.17-6.5-.5-6.5h-122l2,5c27.33,5.67,41,21.5,41,47.5v130c0,27.34-13.5,43.67-40.5,49-1.34,2-2.17,3.5-2.5,4.5h253c-6-8.33-12-16.66-18-25-8.67-12.33-13-23.66-13-34Z"/>
      <path class="cls-1" d="M854.5,160.5c4,7,8,13.84,12,20.5,18,28,35.83,57.34,53.5,88,1.66,2.67,2.5,11.17,2.5,25.5,0,19.34-.84,31-2.5,35-4,10.34-16.17,20.84-36.5,31.5h126.5c-8.34-5-16.84-10-25.5-15-10-6.33-15-13.33-15-21v-50.5c.33-.66,13.66-17.66,40-51,16-20.66,29.66-35.16,41-43.5,10.33-3.33,19-5.66,26-7-21.67-21-34.34-51.33-38-91-17.34,47-47.17,94.5-89.5,142.5-25-36.66-40.34-63.66-46-81,9-9.33,19.33-16.16,31-20.5h-130.5c18.66,9,29.33,14.5,32,16.5,6.33,4,12.66,11,19,21Z"/>
      <path class="cls-1" d="M652.9,787.14c-24.41-6.38-48.77-12.37-73.61-16.75-15.01-2.86-32.96-4.86-47.05-9.3-15.75-4.87-29.86-19.49-37.81-35.4,17.52,10.8,35.62,20.92,54.56,29,17.88,7.57,35.06,10.48,53.89,4.14,12.45-4.19,23.73-12.24,31.93-22.1-17.21,9.58-37.32,14.9-56.38,9.22-10.79-3.38-20.9-9.78-30.43-15.96-3.03-1.98-6.04-3.98-9.03-5.98h.02s-.05-.03-.08-.04c-7.84-5.25-15.57-10.57-23.28-15.95-8.33-8.55-14.38-19.22-18.14-32.01-4-12.33-6-30.5-6-54.5v-146c2-4.66,4.66-7,8-7,19,0,31.58,2,37.75,6,6.16,4,10.41,11.34,12.75,22,1.66,7,3.16,14,4.5,21,19-41.33,37-74.83,54-100.5h-279.5c20.33,40.67,35,75,44,103,3-22.66,8.33-37.33,16-44,5.66-5,16.83-7.5,33.5-7.5,9.33,0,15,1.5,17,4.5v186.5c0,4.34-2,11.09-6,20.25-4,9.17-7.17,14.75-9.5,16.75-11.7,9.84-21.27,17.65-28.72,23.46-4.28,2.91-8.56,5.79-12.8,8.6-9.68,6.35-19.35,12.87-30.1,16.9-19.02,7.13-37.88,1.02-55.02-8.73,8.04,9.81,18.82,18.48,31.34,22.5,22.69,7.64,44.63-1.38,64.83-11.41,13.66-6.71,27.09-14.18,40.03-22.18-.48.95-.97,1.87-1.47,2.76-6.63,11.87-16.18,22.75-28.08,29.21-12.82,6.53-29.21,7.99-43.79,10.76-28.73,4.59-56.98,11.34-85.11,18.79,18.63,1.97,37.35,1.99,56.04,1.85-5.63,6.83-9.98,14.89-12.87,23.02-6.79,17.52-6.85,38.3,1.2,55.13-1.96-17.41,1.05-35.13,9.47-50.42,6.04-11.13,14.52-22.88,26.3-27.93,6.46-.08,12.92-.21,19.41-.5,12.08-.59,25.68-1.52,37.77-6.17-.71,5.14-1.11,10.34-1.6,15.48-.91,4.77-1.47,9.59-1.64,14.4-2.2,19.38-3.89,39.33-10.24,57.71-4.93,14.17-12.74,26.42-22.99,37.76,10.84-5.44,20.14-13.91,27.3-23.72,6.96-9.68,11.56-20.61,14.82-31.98.72,1.33,1.46,2.64,2.27,3.94l.22.36.11.18.06.09c-.16-.39-.35-1.02-.3-1.53l.37,1.64c4.2,6.61,9.43,12.69,15.66,17.42-8.14-15.65-12.72-30.9-13.08-47.03.26-1.66.51-3.32.75-4.98,1.14-7.44,1.92-15.05,2.57-22.64,1.2-4.7,2.72-9.51,4.59-14.47,2.61-6.81,5.66-13.48,9.25-19.83.1-.16.42-.73.51-.87.15-.22.28-.47.42-.71,0,0-.02.08-.02.08.43-.81.88-1.62,1.33-2.42,8.53-9.13,15.29-19.97,20.04-31.59.4-1.04.8-2.13,1.19-3.26.13.38.27.76.4,1.13,4.78,12.45,11.81,24.01,20.83,33.66.46.82.92,1.65,1.36,2.47,0,0,0-.03-.02-.08.13.24.26.49.42.71l.17.28.35.59c3.59,6.34,6.64,13.02,9.25,19.83,1.87,4.96,3.39,9.77,4.59,14.47.65,7.59,1.43,15.2,2.57,22.64.24,1.66.49,3.32.75,4.98-.37,16.13-4.94,31.37-13.08,47.03,6.23-4.73,11.46-10.81,15.66-17.42l.37-1.64c.02.47-.11,1.17-.3,1.53l.06-.09.11-.18.22-.36c.81-1.29,1.56-2.61,2.27-3.94,3.25,11.36,7.85,22.29,14.82,31.98,7.16,9.81,16.46,18.28,27.3,23.72-10.25-11.34-18.06-23.59-22.99-37.76-6.35-18.39-8.05-38.33-10.24-57.72-.17-4.81-.73-9.63-1.64-14.4-.49-5.17-.9-10.42-1.61-15.59,15.82,6,32.87,6.04,49.47,6.59,2.48.02,4.97.05,7.45.08,11.92,4.98,20.49,16.83,26.57,28.05,8.42,15.29,11.43,33.01,9.47,50.42,8.05-16.83,7.99-37.61,1.2-55.13-2.89-8.13-7.24-16.19-12.88-23.03,18.7.17,37.39,0,56.04-1.84Z"/>
      <path class="cls-1" d="M837,716c-13.34,0-26.17-9.83-38.5-29.5-8-15-16-30.16-24-45.5,14.33-5.33,27-16.08,38-32.25,11-16.16,16.5-30.75,16.5-43.75,0-25.33-10.44-46.5-31.3-63.5-19.55-15.66-42.07-23.5-67.57-23.5-15.24,0-32.96,4.5-53.16,13.5-1.99.34-3.65,0-4.97-.98v-37.02c-18.57,20.63-34.1,35.44-46.59,44.41-14.19,8.66-24.82,14.98-31.91,18.97,1,.34,5.83,2,14.5,4.99,6.33,1.66,10.33,4.49,12,8.48,4.33,9.98,6.5,22.29,6.5,36.93v110.3c0,20.63-12.34,36.1-37,46.41h122.5c-7.67-5.33-15.34-10.66-23-16-10-7-15.17-13.83-15.5-20.5,0-4-.25-10.33-.75-19-.5-8.66-.75-13.66-.75-15,0-8.33.33-13.5,1-15.5,18.61,6,36.56,10.17,53.84,12.5,11.97,20.34,25.43,46.34,40.39,78,11.96,25.33,23.93,50.66,35.9,76-2.33-36.67,13.46-66.67,47.37-90-1,0-3.17.25-6.5.75-3.34.5-5.67.75-7,.75ZM758.68,596.5c-12.32,8.18-24.71,8.5-32.69,8.5-13.21,0-24.94-2.83-35.17-8.5-12.55-7-18.82-16.83-18.82-29.5,0-14.33,6.6-25.5,19.81-33.5,10.89-7,23.27-10.5,37.15-10.5,6.49,0,14.47-.03,23.78,4,6.68,2.89,11.44,6.74,14.36,9.5,2.75,2.44,7.47,7.34,10.16,15,2.13,6.09,2.01,11.15,1.94,12.6-.34,7.69-3.33,13.32-5,16-2.56,4.28-7.37,10.99-15.52,16.4Z"/>
      <path class="cls-1" d="M944,685.5v-164c0-5.33,5.16-11.83,15.5-19.5,8-6,14-9.5,18-10.5h-115c24.66,12.34,37,27.67,37,46v146c0,9.67-4.5,17.84-13.5,24.5-8,5.34-15.84,10.67-23.5,16h116.5l-21-15c-9.34-7.66-14-15.5-14-23.5Z"/>
      <path class="cls-1" d="M1031.5,694c-1.67,2.67-3,5.17-4,7.5-15,11-27,18.5-36,22.5h266.5c-18.34-16-40.84-41.66-67.5-77,1,5.34.83,11.5-.5,18.5-2,11-6.34,16.5-13,16.5h-96.5v-55h53.5c9.33.34,21,12.84,35,37.5v-113c-6.34,8-12.84,15.84-19.5,23.5-6.67,7.67-13,11.5-19,11.5h-50v-55c0,.67,28.33,1,85,1,6.66.33,11.66,4.42,15,12.28,1.33,5.25,2.83,10.66,4.5,16.22,36-37.33,57.83-61.5,65.5-72.5h-255c0,.34.16,1.5.5,3.5,26.66,10.34,40,28.5,40,54.5v51.5c0,34.67-1.5,66.67-4.5,96Z"/>
      <path class="cls-1" d="M458.73,393.27c43.54,0,78.26-16.22,104.14-48.68,22.59-28.75,33.89-63.67,33.89-104.76s-9.86-72.5-29.58-100.45c-23.83-34.09-58.34-51.15-103.53-51.15-41.9,0-76.62,15.41-104.14,46.22-25.88,29.17-38.82,63.89-38.82,104.14,0,42.32,11.09,77.65,33.28,105.99,25.05,32.46,59.98,48.68,104.76,48.68ZM378.89,161.45c17.79-32.03,44.18-48.15,79.15-48.36l-2.02,11.06c-3.38,18.45-13.6,34.94-28.61,46.17l-.87.65.87.65c15.02,11.23,25.24,27.73,28.61,46.17l3.71,20.29,3.71-20.29c3.38-18.45,13.6-34.94,28.61-46.17l.87-.65-.87-.65c-15.02-11.23-25.24-27.73-28.61-46.17l-2.02-11.03c36.05.7,62.82,15.49,80.31,44.37,12.91,20.94,19.74,46.58,20.48,76.9-12.18-3.97-23.11-11.23-31.51-21.09l-1.47-1.73-1.47,1.73c-10.75,12.63-25.65,21.01-42.03,23.65l-23.62,3.8,23.62,3.8c16.37,2.63,31.27,11.02,42.03,23.65l1.47,1.73,1.47-1.73c8.38-9.84,19.28-17.09,31.44-21.06-1.14,30.25-9.51,56.41-25.15,78.47-18.4,26.67-43.49,40.39-75.27,41.19l1.73-9.45c3.38-18.45,13.6-34.94,28.61-46.17l.87-.65-.87-.65c-15.02-11.23-25.24-27.73-28.61-46.17l-3.71-20.29-3.71,20.29c-3.38,18.45-13.6,34.94-28.61,46.17l-.87.65.87.65c15.02,11.23,25.24,27.73,28.61,46.17l1.73,9.47c-32.73-.29-58.23-15.08-76.49-44.39-14.28-22.21-21.87-47.19-22.82-74.93,11.7,4.05,22.19,11.16,30.32,20.7l1.47,1.73,1.47-1.73c10.75-12.63,25.65-21.01,42.03-23.65l23.62-3.8-23.62-3.8c-16.37-2.63-31.27-11.02-42.03-23.65l-1.47-1.73-1.47,1.73c-8.1,9.52-18.57,16.63-30.25,20.68,1.09-26.15,7.86-50.33,20.38-72.53Z"/>
    </g>
  </g>
</svg>