<?xml version="1.0" encoding="UTF-8"?>
<svg id="Layer_2" data-name="Layer 2" xmlns="http://www.w3.org/2000/svg" viewBox="0 0 409.75 163.12">
  <defs>
    <style>
      .cls-1 {
        fill: #26a9e0;
      }

      .cls-1, .cls-2, .cls-3, .cls-4, .cls-5 {
        stroke-width: 0px;
      }

      .cls-2 {
        fill: #9e1f63;
      }

      .cls-3 {
        fill: #00a69c;
      }

      .cls-4 {
        fill: #ee4036;
      }

      .cls-5 {
        fill: #fff;
      }
    </style>
  </defs>
  <g id="Layer_1-2" data-name="Layer 1">
    <g>
      <g>
        <path class="cls-5" d="M94.88,44.92l5.09,1.17c0,.07.01.15.01.24v.31c0,.21,0,.43,0,.66s-.02.43-.03.6c-.23.77-.47,1.47-.74,2.11s-.59,1.23-.96,1.79c-.42.65-.93,1.24-1.51,1.79s-1.28,1.07-2.1,1.59l1.18,2.8c.17.42.32.76.45,1.05s.24.53.34.73c.19.38.38.7.57.96s.43.52.71.79c-.38.38-.76.75-1.15,1.12s-.77.73-1.16,1.09l-.51-.44c-.25-.24-.47-.48-.66-.71s-.36-.47-.51-.71-.3-.52-.44-.8-.29-.61-.44-.97l-5.91-13.83,3.13-1.31,3.23,7.62c.49-.31.91-.67,1.25-1.07s.62-.85.86-1.34c.16-.33.31-.68.43-1.04s.24-.74.33-1.14l-2.09-.49.62-2.54Z"/>
        <path class="cls-5" d="M106.77,48.35c-.44,0-.83,0-1.17-.02s-.66-.04-.97-.08-.63-.1-.95-.18-.69-.2-1.11-.34c.14-.47.28-.93.42-1.38s.3-.9.46-1.34c.44.12.82.22,1.14.29s.62.12.91.16.6.06.92.07.71.01,1.17.01h1.57c.55,0,1.08.06,1.61.18s1,.35,1.43.69c.42.33.75.78,1.01,1.36s.39,1.34.39,2.27v9h-3.54v-8.09c0-.54-.02-.97-.07-1.31s-.15-.6-.32-.79-.4-.32-.71-.39-.73-.1-1.25-.1h-.92Z"/>
        <path class="cls-5" d="M122.67,45.53v13.5h-3.54v-10.69h-2.27v-2.82h5.82Z"/>
        <path class="cls-5" d="M132,45.53v13.5h-3.54v-10.69h-2.27v-2.82h5.82Z"/>
        <path class="cls-5" d="M139.61,56.41c.17.02.35.03.53.04s.37.01.58.01c.51,0,1.04-.05,1.59-.14s1.08-.26,1.6-.49,1.01-.55,1.48-.95.87-.9,1.21-1.52c.49-.87.83-1.76,1.02-2.67s.28-1.84.28-2.78c0-.37-.01-.74-.04-1.1s-.06-.73-.1-1.1c.37-.1.69-.18.96-.24s.53-.12.78-.17.52-.09.8-.14.63-.09,1.04-.14c.09.37.15.78.18,1.21s.05.89.05,1.34c0,.42-.02.84-.05,1.25s-.07.78-.11,1.13c-.43,3.2-1.59,5.59-3.47,7.15s-4.48,2.35-7.8,2.35c-.57,0-1.16-.02-1.77-.06s-1.25-.1-1.93-.18l-.58-7.83c-.03-.45-.06-.85-.08-1.19s-.04-.65-.06-.92-.05-.52-.08-.75-.08-.46-.14-.69-.13-.47-.21-.72-.19-.54-.32-.87c.51-.2,1.03-.41,1.55-.64s1.05-.42,1.56-.58c.23.5.42.96.55,1.38s.23.84.3,1.27.12.87.16,1.35.07,1.02.12,1.64l.43,5.75ZM140.87,49.96c.13-.36.24-.67.33-.93s.17-.48.23-.68.1-.39.13-.56.04-.37.04-.56v-.2c0-.06,0-.14-.01-.21,0-.14-.01-.29-.03-.44s-.05-.33-.08-.53c.57-.17,1.14-.32,1.69-.45s1.12-.25,1.69-.37c.11.39.19.74.25,1.06s.08.63.08.93c0,.25-.02.5-.06.76s-.1.53-.18.81-.18.6-.29.93-.25.71-.41,1.13l-.87,2.3c-.36-.1-.67-.18-.92-.25s-.48-.14-.7-.22-.45-.17-.69-.27-.53-.23-.86-.4l.66-1.84Z"/>
        <path class="cls-5" d="M167.76,45.53v17.59h-3.54v-14.78h-2.66v-2.82h6.21Z"/>
        <path class="cls-5" d="M175.04,48.35c-.44,0-.83,0-1.17-.02s-.66-.04-.97-.08-.63-.1-.95-.18-.69-.2-1.11-.34c.14-.47.28-.93.42-1.38s.3-.9.46-1.34c.44.12.82.22,1.14.29s.62.12.91.16.6.06.92.07.71.01,1.17.01h7.49v2.82h-2.62v10.69h-3.54v-10.69h-2.13Z"/>
        <path class="cls-5" d="M189.6,48.35c-.44,0-.83,0-1.17-.02s-.66-.04-.97-.08-.63-.1-.95-.18-.69-.2-1.11-.34c.14-.47.28-.93.42-1.38s.3-.9.46-1.34c.44.12.82.22,1.14.29s.62.12.91.16.6.06.92.07.71.01,1.17.01h1.57c.55,0,1.08.06,1.61.18s1,.35,1.43.69c.42.33.75.78,1.01,1.36s.39,1.34.39,2.27v9h-3.54v-8.09c0-.54-.02-.97-.07-1.31s-.15-.6-.32-.79-.4-.32-.71-.39-.73-.1-1.25-.1h-.92Z"/>
        <path class="cls-5" d="M205.79,45.53v4.93c0,.47,0,.86-.01,1.17s-.03.6-.05.86-.06.51-.1.75-.1.51-.17.8l-3.49-.51c.04-.26.08-.5.12-.71s.06-.45.09-.69.05-.52.06-.82.02-.67.02-1.09v-1.88h-2.97v-2.82h6.52Z"/>
        <path class="cls-5" d="M125.73,76.52c-.16-.49-.29-.96-.37-1.4-.08-.44-.13-.88-.13-1.31,0-.5.06-.99.19-1.46.13-.47.33-.95.61-1.43-.13,0-.26-.01-.37-.03-.12-.01-.24-.03-.36-.05-.12-.02-.24-.05-.37-.09-.13-.04-.26-.08-.41-.14.06-.18.13-.36.19-.55s.13-.37.19-.56c.21.07.4.12.56.15.16.04.32.06.47.08.15.02.32.03.48.03s.37,0,.6,0h1.97c.32,0,.63.04.94.11.31.07.59.21.84.41.25.19.45.46.6.81s.23.8.23,1.35v5.2h-1.31v-5.05c0-.31-.02-.58-.06-.79-.04-.22-.11-.39-.23-.52-.11-.13-.26-.22-.45-.28-.19-.06-.44-.08-.74-.08h-1.48c-.28.39-.48.82-.59,1.3-.11.47-.17.96-.17,1.47,0,.41.03.81.1,1.21.06.4.14.77.24,1.13l.25.81c-.01.13-.02.26-.03.39-.01.13-.03.27-.05.41h-3v-1.13h1.66Z"/>
        <path class="cls-5" d="M136.42,69.78v2.45c0,.27,0,.5,0,.68s-.02.35-.03.5-.03.3-.06.44-.06.3-.1.47l-1.28-.19c.03-.15.05-.29.07-.42.02-.13.04-.26.05-.4s.03-.3.03-.48c0-.18.01-.39.01-.64v-1.27h-1.73v-1.15h3.04Z"/>
        <path class="cls-5" d="M140.02,69.43c.11.02.24.05.42.08.17.03.36.07.57.11.21.04.43.09.65.14.23.05.44.1.66.15s.4.1.58.15c.18.05.32.1.43.14.27.11.5.23.67.37.17.14.31.31.41.49.1.18.17.39.21.61.04.22.06.46.06.72v3.76c0,.12,0,.23-.01.34,0,.11-.02.22-.03.34-.02.12-.04.24-.07.37-.03.13-.06.28-.1.44h-6.25v-1.14h5.17v-3.94c0-.26-.02-.47-.05-.64-.03-.17-.09-.31-.18-.42-.08-.11-.2-.19-.34-.26-.14-.07-.33-.13-.56-.19-.22-.06-.45-.11-.7-.17s-.48-.11-.71-.16l-.86,1.95,1.52.9-.61,1-2.5-1.48,1.63-3.67Z"/>
        <path class="cls-5" d="M148.67,70.93c-.22,0-.42,0-.6,0s-.35-.02-.51-.04-.33-.05-.5-.09c-.16-.04-.35-.1-.55-.18.07-.18.13-.36.19-.55s.13-.37.19-.56c.21.07.4.12.56.15s.32.06.47.08c.15.02.32.03.48.03s.37,0,.6,0h.71c.32,0,.63.04.94.11.31.07.59.2.84.4.24.2.44.47.6.82s.23.8.23,1.35v5.2h-1.31v-5.05c0-.31-.02-.58-.07-.79-.05-.22-.13-.39-.24-.52-.12-.13-.27-.22-.47-.28-.19-.06-.45-.08-.75-.08h-.83Z"/>
        <path class="cls-5" d="M157.95,69.78v4.07c0,.24.03.47.11.69.07.22.15.44.23.67.15.39.29.79.41,1.19.13.4.24.82.34,1.25h-1.22c-.06-.26-.14-.54-.23-.83-.09-.29-.18-.56-.28-.82l-.19-.48c-.16.19-.3.34-.41.47-.11.13-.21.24-.29.33-.09.09-.17.18-.24.26-.07.08-.15.16-.24.25-.27.27-.56.5-.87.67-.31.18-.67.3-1.08.36-.05-.19-.1-.39-.14-.58-.04-.19-.08-.39-.12-.58.17-.05.33-.09.47-.14s.27-.1.4-.17c.13-.07.24-.15.36-.24.11-.09.23-.21.35-.34l1.36-1.49v-3.38h-1.73v-1.15h2.99Z"/>
        <path class="cls-5" d="M166.16,76.52c-.16-.49-.29-.96-.37-1.4-.08-.44-.13-.88-.13-1.31,0-.5.06-.99.19-1.46.13-.47.33-.95.61-1.43-.13,0-.26-.01-.37-.03-.12-.01-.24-.03-.36-.05-.12-.02-.24-.05-.37-.09-.13-.04-.26-.08-.41-.14.06-.18.13-.36.19-.55s.13-.37.19-.56c.21.07.4.12.56.15.16.04.32.06.47.08.15.02.32.03.48.03s.37,0,.6,0h1.97c.32,0,.63.04.94.11.31.07.59.21.84.41.25.19.45.46.6.81s.23.8.23,1.35v5.2h-1.31v-5.05c0-.31-.02-.58-.06-.79-.04-.22-.11-.39-.23-.52-.11-.13-.26-.22-.45-.28-.19-.06-.44-.08-.74-.08h-1.48c-.28.39-.48.82-.59,1.3-.11.47-.17.96-.17,1.47,0,.41.03.81.1,1.21.06.4.14.77.24,1.13l.25.81c-.01.13-.02.26-.03.39-.01.13-.03.27-.05.41h-3v-1.13h1.66Z"/>
        <path class="cls-5" d="M176.31,70.93c-.22,0-.42,0-.6,0-.18,0-.35-.02-.51-.04s-.33-.05-.5-.09c-.17-.04-.35-.1-.55-.18.06-.18.13-.36.19-.55s.13-.37.19-.56c.21.07.4.12.56.15.16.04.32.06.47.08.15.02.32.03.48.03s.37,0,.6,0h.22c.32,0,.63.04.94.11.31.07.59.2.84.4.24.19.44.46.59.8s.23.78.23,1.33v4.09h1.39v1.15h-7.17v-1.15h4.47v-3.9c0-.31-.02-.58-.07-.79-.04-.22-.12-.39-.24-.52-.11-.13-.27-.22-.47-.28s-.45-.08-.75-.08h-.32Z"/>
        <path class="cls-5" d="M183.95,73.28c-.32-.37-.6-.72-.82-1.04-.23-.32-.4-.62-.54-.9-.14-.29-.25-.54-.32-.76s-.14-.44-.19-.64c.19-.08.39-.15.6-.22.21-.07.42-.13.63-.19.02.06.04.12.06.18.02.06.04.12.06.18.05.16.1.32.16.49.06.16.14.34.24.53.1.19.23.4.38.64s.35.49.59.78c.08.1.15.18.22.27.07.08.15.17.24.27s.19.22.32.36c.12.14.28.31.47.53.16-.1.29-.2.4-.31.11-.11.22-.23.31-.37.09-.13.18-.28.25-.45s.15-.35.24-.56c.07-.2.14-.4.2-.58s.11-.38.17-.57l-1.08-.33.29-1.04,2.07.58-.05.97c-.07.25-.16.51-.25.79-.1.28-.19.53-.28.76-.1.24-.2.46-.3.65-.1.19-.21.36-.33.52-.12.15-.26.3-.4.42-.15.13-.32.25-.5.36l1.71,2.01c-.01.13-.03.28-.05.44-.03.16-.07.36-.13.6h-5.99v-1.15h4.44l-2.79-3.22Z"/>
        <path class="cls-5" d="M195.16,70.7c.05-.19.1-.38.16-.56.05-.19.11-.37.16-.56l2.24.59c.01.18.03.35.04.53s.02.35.02.53c-.05.42-.13.84-.22,1.25-.1.41-.23.8-.38,1.18s-.35.75-.57,1.11c-.23.36-.49.69-.79,1.01-.32.33-.68.64-1.08.91-.4.27-.84.52-1.31.75-.34.16-.7.31-1.08.45s-.78.26-1.21.38l-.37-1.17c.39-.12.8-.24,1.22-.39.42-.14.84-.31,1.27-.51-.27-.71-.54-1.41-.81-2.12-.26-.71-.53-1.41-.8-2.12-.07-.18-.13-.33-.19-.44-.05-.11-.12-.21-.21-.29-.09-.09-.21-.17-.36-.24s-.35-.17-.61-.3c.09-.18.18-.36.28-.55.1-.18.19-.36.3-.55.28.11.52.21.71.3s.37.19.51.3c.14.1.26.22.36.36s.19.31.27.52c.05.13.1.26.15.39s.11.28.17.44.13.35.2.56c.08.21.17.46.27.75s.22.62.35,1,.29.82.47,1.33c.33-.25.62-.53.86-.85.24-.31.45-.66.62-1.04.17-.38.3-.78.41-1.22.1-.43.19-.9.24-1.4l-1.28-.35Z"/>
        <path class="cls-5" d="M199.13,77.72c.08-.5.15-.94.21-1.31.06-.37.12-.7.17-.99s.1-.55.13-.78c.04-.23.08-.45.11-.67.04-.22.07-.45.11-.68.04-.23.08-.49.12-.79.03-.25.03-.47.01-.64-.02-.18-.06-.34-.13-.51-.07-.16-.16-.34-.28-.52-.12-.19-.27-.42-.45-.69.1-.06.19-.12.27-.17.08-.05.16-.1.25-.15s.18-.1.28-.16c.1-.06.22-.13.36-.21.12.16.22.3.3.42.08.12.16.23.23.34.06.1.12.21.17.31s.1.21.15.32c.21-.2.42-.37.61-.53.19-.15.39-.28.59-.39.2-.1.42-.18.64-.24s.48-.08.75-.08c.67,0,1.22.17,1.67.52.45.35.74.88.89,1.59.04.2.07.45.09.75.02.3.03.61.04.93,0,.32,0,.63,0,.94,0,.31,0,.57,0,.78,0,.35-.01.68-.02,1s-.02.58-.04.8c-.01.11-.02.23-.03.35-.01.12-.03.25-.05.38h-3.73v-1.15h2.54c0-.09.01-.18.02-.28,0-.1.01-.24.02-.41,0-.17,0-.39,0-.66,0-.27,0-.62,0-1.04,0-.19,0-.39,0-.59,0-.2-.01-.39-.02-.58,0-.18-.02-.36-.04-.52s-.04-.3-.06-.42c-.05-.19-.1-.36-.18-.51-.07-.15-.16-.28-.27-.39s-.24-.19-.39-.25c-.15-.06-.33-.09-.54-.09-.22,0-.43.04-.64.11-.21.07-.4.17-.59.28-.19.12-.37.26-.54.41s-.34.32-.49.48c-.09.56-.17,1.05-.24,1.48-.07.43-.13.81-.18,1.15-.06.34-.11.64-.15.91-.04.27-.08.51-.12.75-.04.23-.08.46-.11.67s-.07.44-.11.68h-1.32Z"/>
        <path class="cls-5" d="M119.7,88.07c.58,0,1.11.11,1.61.33.5.22.92.52,1.28.9.36.38.64.82.84,1.33.2.51.31,1.05.31,1.63s-.1,1.13-.31,1.64c-.21.51-.49.95-.84,1.33-.36.38-.79.68-1.28.9-.5.22-1.03.33-1.61.33s-1.12-.11-1.61-.33c-.49-.22-.92-.52-1.28-.9s-.64-.82-.85-1.33c-.21-.51-.31-1.05-.31-1.64s.1-1.12.31-1.63c.2-.51.49-.95.85-1.33s.79-.68,1.28-.9c.49-.22,1.03-.33,1.61-.33ZM119.7,89.27c-.39,0-.76.08-1.09.23-.33.15-.62.37-.86.64-.24.27-.43.59-.57.95-.13.36-.2.76-.2,1.17s.07.81.2,1.18c.14.37.33.68.57.95.24.27.53.48.86.64.33.15.7.23,1.09.23s.76-.08,1.09-.23c.33-.15.62-.37.86-.64.24-.27.43-.59.56-.95.14-.37.2-.76.2-1.18s-.07-.81-.2-1.17-.32-.68-.56-.95c-.24-.27-.53-.48-.86-.64-.33-.15-.7-.23-1.09-.23Z"/>
        <path class="cls-5" d="M125.1,98.34v-1.17c.94-.06,1.7-.17,2.29-.33.76-.21,1.35-.52,1.78-.91.43-.39.65-.92.65-1.58,0-.57-.16-1-.48-1.31-.3-.29-.72-.43-1.27-.43-.57,0-1.16.14-1.76.42l-.66-.45.25-4.24h1.77c.71,0,1.23-.02,1.55-.06.32-.04.66-.13,1.01-.27l.43,1.08c-.33.13-.69.22-1.1.28-.27.04-.63.06-1.08.06h-1.42l-.14,2.34c.47-.15.94-.22,1.41-.22.87,0,1.53.23,1.98.7.27.27.47.59.61.97s.2.77.2,1.18c0,1.7-1.07,2.87-3.2,3.5-.87.26-1.81.4-2.83.43Z"/>
        <path class="cls-5" d="M135.72,88.06l1.25.27c-.08.68-.31,1.42-.71,2.2l-2.3,4.59h3.18v-2.09h1.27v2.09h1.42v1.14h-1.42v2.08h-1.27v-2.08h-4.49l-.3-.94,2.48-4.91c.28-.56.48-.97.58-1.24.11-.27.21-.64.3-1.12Z"/>
        <path class="cls-5" d="M141.92,91.47h5.73v1.12h-5.73v-1.12Z"/>
        <path class="cls-5" d="M155.08,90.93c.24.12.45.26.65.41s.36.33.5.53c.13.2.24.43.31.69s.11.56.11.89c0,.47-.09.9-.26,1.27-.18.37-.42.68-.72.94-.31.25-.67.45-1.09.58-.42.13-.87.2-1.36.2s-.94-.07-1.36-.2c-.42-.13-.78-.33-1.09-.59-.31-.26-.55-.58-.72-.96-.17-.38-.26-.81-.26-1.3,0-.29.04-.57.12-.82.08-.25.19-.49.34-.7.14-.21.32-.4.52-.58s.43-.32.68-.45c-.15-.11-.29-.23-.42-.36-.13-.13-.25-.28-.35-.45-.1-.17-.18-.36-.23-.58-.06-.22-.08-.46-.08-.74,0-.39.08-.73.24-1.03.16-.3.37-.55.64-.75.27-.21.58-.36.92-.47.35-.11.72-.16,1.11-.16s.77.05,1.12.16c.35.11.66.26.93.47.27.2.48.46.64.76.16.3.23.64.23,1.03,0,.45-.1.86-.29,1.23-.19.37-.46.7-.81.98ZM153.22,95.37c.33,0,.63-.05.9-.14.27-.09.5-.22.68-.39s.32-.37.42-.61c.1-.24.15-.5.15-.8,0-.26-.04-.48-.13-.67s-.21-.36-.36-.49-.33-.25-.53-.35c-.2-.09-.42-.17-.64-.24-.22-.07-.45-.13-.69-.18-.24-.05-.46-.1-.67-.15-.42.24-.74.53-.96.86-.22.33-.32.72-.32,1.17,0,.31.05.58.15.83.1.25.24.45.42.62.18.17.41.3.68.39.27.09.57.14.9.14ZM153.26,87.38c-.24,0-.46.03-.67.09-.21.06-.39.14-.54.26-.15.11-.27.26-.36.43s-.13.37-.13.6c0,.34.08.62.26.83.17.21.39.37.64.5.26.12.54.22.84.29.3.07.58.13.84.2.16-.14.29-.28.39-.42s.19-.28.26-.42c.06-.14.11-.3.14-.45.03-.16.04-.33.04-.52,0-.23-.05-.43-.14-.61s-.22-.31-.37-.43c-.16-.11-.34-.2-.55-.25s-.43-.08-.66-.08Z"/>
        <path class="cls-5" d="M161.45,89.44h-1.2c-.45,0-.81-.02-1.08-.06-.4-.06-.77-.15-1.1-.28l.43-1.08c.35.14.69.23,1.01.27.32.04.84.06,1.55.06h2v.86l-1.92,2.38c.38-.03.73,0,1.05.1s.58.24.8.42c.21.18.4.4.55.65s.26.52.33.8c.07.28.1.57.1.86,0,1.7-1.07,2.87-3.2,3.5-.87.26-1.81.4-2.83.43v-1.17c.94-.06,1.7-.17,2.29-.33.76-.21,1.35-.52,1.78-.91.43-.39.65-.92.65-1.58,0-.57-.16-1-.47-1.3-.31-.3-.73-.45-1.27-.45-.36,0-.76.08-1.19.23l-.36-.72,2.08-2.69Z"/>
        <path class="cls-5" d="M169.37,88.07c.58,0,1.11.11,1.61.33.5.22.92.52,1.28.9.36.38.64.82.84,1.33.2.51.31,1.05.31,1.63s-.1,1.13-.31,1.64c-.21.51-.49.95-.84,1.33-.36.38-.79.68-1.28.9-.5.22-1.03.33-1.61.33s-1.12-.11-1.61-.33c-.49-.22-.92-.52-1.28-.9s-.64-.82-.85-1.33c-.21-.51-.31-1.05-.31-1.64s.1-1.12.31-1.63c.2-.51.49-.95.85-1.33s.79-.68,1.28-.9c.49-.22,1.03-.33,1.61-.33ZM169.37,89.27c-.39,0-.76.08-1.09.23-.33.15-.62.37-.86.64-.24.27-.43.59-.57.95-.13.36-.2.76-.2,1.17s.07.81.2,1.18c.14.37.33.68.57.95.24.27.53.48.86.64.33.15.7.23,1.09.23s.76-.08,1.09-.23c.33-.15.62-.37.86-.64.24-.27.43-.59.56-.95.14-.37.2-.76.2-1.18s-.07-.81-.2-1.17-.32-.68-.56-.95c-.24-.27-.53-.48-.86-.64-.33-.15-.7-.23-1.09-.23Z"/>
        <path class="cls-5" d="M177.99,88.06l1.25.27c-.08.68-.31,1.42-.71,2.2l-2.3,4.59h3.18v-2.09h1.27v2.09h1.42v1.14h-1.42v2.08h-1.27v-2.08h-4.49l-.3-.94,2.48-4.91c.28-.56.48-.97.58-1.24.11-.27.21-.64.3-1.12Z"/>
        <path class="cls-5" d="M184.17,98.27v-1.03c1.26.06,2.24-.17,2.95-.68s1.16-1.33,1.36-2.46c-.32.22-.69.39-1.09.52-.41.13-.79.19-1.14.19-.9,0-1.61-.27-2.13-.83-.53-.59-.79-1.41-.79-2.45,0-.45.06-.89.2-1.29.13-.41.33-.77.6-1.11.26-.33.61-.59,1.05-.79.44-.19.94-.29,1.5-.29.78,0,1.43.17,1.94.52s.89.81,1.11,1.41c.23.6.33,1.31.31,2.15-.03,1.13-.2,2.15-.52,3.07-.21.59-.49,1.1-.85,1.52s-.79.75-1.26.98c-.48.23-.98.39-1.51.48-.53.09-1.1.12-1.71.08ZM188.62,92.84c.06-.3.09-.63.09-1s-.04-.73-.11-1.05c-.07-.31-.18-.6-.34-.85s-.37-.45-.64-.59c-.27-.14-.59-.21-.97-.21-.65,0-1.15.21-1.5.64s-.53,1-.53,1.72c0,.79.18,1.36.52,1.72.32.33.77.49,1.35.49.33,0,.68-.08,1.06-.25.38-.16.73-.37,1.05-.63Z"/>
        <path class="cls-5" d="M194.5,88.06c.37,0,.71.04,1.03.12.31.08.59.21.84.39.25.18.45.42.59.72.14.3.21.65.21,1.05,0,.33-.04.62-.11.86-.14.44-.45.82-.94,1.11-.24.15-.77.4-1.58.76-.01,0-.02.01-.04.02-.02,0-.03.01-.04.02,0,0-.02,0-.04.02-.29.13-.48.21-.56.25-.08.04-.22.12-.4.25s-.3.24-.36.36c-.05.11-.11.27-.17.46s-.09.42-.09.68h4.17v1.14h-5.48v-1.06c0-.38.05-.73.14-1.03.09-.31.21-.56.35-.78s.34-.41.6-.59c.26-.19.51-.34.76-.46.25-.12.56-.26.94-.41.29-.12.5-.21.65-.28.15-.07.3-.17.45-.28.16-.12.27-.26.33-.41s.09-.34.09-.56c0-.43-.13-.74-.4-.94s-.63-.3-1.08-.3c-.72,0-1.48.19-2.28.58l-.41-.98c.91-.46,1.85-.7,2.82-.7Z"/>
        <path class="cls-5" d="M202.65,88.07c.58,0,1.11.11,1.61.33.5.22.92.52,1.28.9.36.38.64.82.84,1.33.2.51.31,1.05.31,1.63s-.1,1.13-.31,1.64c-.21.51-.49.95-.84,1.33-.36.38-.79.68-1.28.9-.5.22-1.03.33-1.61.33s-1.12-.11-1.61-.33c-.49-.22-.92-.52-1.28-.9s-.64-.82-.85-1.33c-.21-.51-.31-1.05-.31-1.64s.1-1.12.31-1.63c.2-.51.49-.95.85-1.33s.79-.68,1.28-.9c.49-.22,1.03-.33,1.61-.33ZM202.65,89.27c-.39,0-.76.08-1.09.23-.33.15-.62.37-.86.64-.24.27-.43.59-.57.95-.13.36-.2.76-.2,1.17s.07.81.2,1.18c.14.37.33.68.57.95.24.27.53.48.86.64.33.15.7.23,1.09.23s.76-.08,1.09-.23c.33-.15.62-.37.86-.64.24-.27.43-.59.56-.95.14-.37.2-.76.2-1.18s-.07-.81-.2-1.17-.32-.68-.56-.95c-.24-.27-.53-.48-.86-.64-.33-.15-.7-.23-1.09-.23Z"/>
        <path class="cls-5" d="M6.45,107v8.05c0,.5-.08.93-.25,1.3s-.39.66-.68.9-.63.41-1.03.53c-.4.11-.83.17-1.3.17-.42,0-.85-.04-1.28-.11-.43-.07-.84-.18-1.23-.31.06-.18.13-.35.2-.52.07-.17.14-.33.21-.5.12.04.27.08.44.13s.35.09.54.12c.19.04.39.07.58.09.2.02.39.03.58.03.29,0,.56-.04.79-.12.24-.08.44-.2.61-.35s.29-.35.38-.58c.09-.23.13-.49.13-.79v-1.71h-.14c-.13.24-.28.46-.45.67-.17.21-.36.39-.57.55s-.43.28-.67.37c-.24.09-.49.13-.76.13-.37,0-.69-.04-.96-.13-.27-.08-.51-.21-.7-.37-.19-.16-.35-.37-.48-.61-.12-.24-.22-.53-.29-.85-.05-.29-.09-.6-.1-.92-.02-.33-.02-.67-.02-1.01v-4.16h1.3v4.52c0,.33.02.64.05.92.03.28.1.53.2.74.1.21.26.37.46.49.2.12.48.18.83.18.26,0,.5-.06.73-.19.23-.12.44-.28.63-.47.19-.19.37-.4.53-.64.16-.23.3-.46.43-.68v-4.88h1.3Z"/>
        <path class="cls-5" d="M9.52,108.39l-.33-1.06c.85-.34,1.74-.51,2.67-.51.81,0,1.43.14,1.86.41.49.31.74.85.74,1.6v3.1c0,.41,0,.84.02,1.27,0,.26.03.52.08.8.04.26.09.51.16.75l-1.24.27c-.12-.34-.19-.72-.22-1.14l-.15-.02c-.63.79-1.42,1.18-2.39,1.18-.71,0-1.27-.2-1.71-.59-.43-.39-.64-.94-.64-1.66,0-.53.12-.96.35-1.3.23-.34.57-.62,1-.86.68-.37,1.62-.55,2.84-.55.16,0,.38,0,.65.02v-1.15c0-.36-.11-.63-.33-.79-.22-.16-.57-.24-1.05-.24-.69,0-1.45.15-2.29.45ZM13.19,112.66v-1.59c-.14,0-.34-.02-.6-.02-.44,0-.85.04-1.23.11-.56.11-.99.29-1.29.53-.31.24-.46.58-.46,1.03,0,.81.44,1.21,1.32,1.21.45,0,.88-.12,1.27-.36.32-.2.65-.51.99-.92Z"/>
        <path class="cls-5" d="M18.36,108.82c.16-.31.32-.6.5-.85s.38-.47.6-.64c.2-.17.41-.3.65-.38.24-.08.51-.12.81-.12.1,0,.22,0,.35.02s.26.03.38.05c-.02.25-.04.49-.07.71s-.06.45-.11.67c-.25-.05-.48-.08-.69-.1s-.41-.02-.6.02c-.22.04-.42.11-.58.22-.16.11-.32.25-.45.43-.14.18-.27.39-.4.64-.13.25-.27.54-.43.86v4.52h-1.3v-4.85c0-.32,0-.6-.01-.84,0-.24-.02-.47-.05-.69-.02-.22-.06-.44-.1-.65-.05-.22-.11-.45-.18-.72.21-.06.42-.11.63-.15.2-.05.41-.09.63-.13.07.2.13.38.17.54s.08.31.1.46c.02.15.04.3.06.45.01.15.03.33.04.53h.07Z"/>
        <path class="cls-5" d="M27.86,103.97h1.3v7.93c0,.89.01,1.47.04,1.75.02.34.08.71.17,1.11l-1.26.28c-.09-.28-.15-.57-.19-.86-.05-.35-.08-.63-.08-.82h-.11c-.26.55-.55.95-.87,1.2-.38.33-.86.49-1.42.49-.5,0-.92-.11-1.28-.32-.36-.21-.64-.51-.84-.9s-.35-.8-.44-1.26-.14-.97-.14-1.52c0-.63.06-1.19.19-1.69.13-.5.33-.94.6-1.33.27-.39.63-.68,1.08-.89.45-.21.98-.31,1.58-.31.48,0,1.03.06,1.67.19v-3.04ZM27.86,111.69v-3.52c-.57-.15-1.09-.23-1.58-.23-.41,0-.76.07-1.06.22-.3.15-.53.36-.69.63-.17.27-.29.57-.36.9-.08.33-.11.71-.11,1.12,0,.28,0,.53.02.75.01.21.03.45.07.7.03.25.08.46.16.64s.16.34.27.49c.1.15.24.27.41.34.17.08.37.12.59.12.53,0,1-.21,1.39-.64.28-.31.58-.82.9-1.52Z"/>
        <path class="cls-5" d="M37.65,114.44c-.56.22-1.09.38-1.58.48-.49.1-.93.14-1.32.14-.6,0-1.11-.1-1.56-.28-.45-.19-.82-.46-1.11-.8-.3-.34-.52-.75-.67-1.23-.15-.48-.22-1-.22-1.58,0-.35.02-.71.07-1.06.05-.35.13-.69.24-1.01.11-.32.26-.62.44-.9s.4-.52.65-.72c.26-.2.56-.36.9-.48s.73-.17,1.18-.17c1.13,0,1.97.35,2.54,1.06.57.7.85,1.71.85,3.03v.42h-5.54c0,.42.05.8.14,1.12.09.33.23.6.42.83.19.22.43.39.72.51s.63.17,1.03.17c.22,0,.44-.02.66-.05.22-.03.43-.08.64-.13.21-.05.41-.11.6-.18.19-.07.37-.13.53-.19l.38,1.02ZM36.76,110.28c-.04-.82-.24-1.42-.59-1.79-.35-.38-.85-.56-1.5-.56s-1.15.19-1.49.56c-.34.38-.55.97-.62,1.79h4.2Z"/>
        <path class="cls-5" d="M39.85,107.13l1.26-.28c.1.3.16.6.2.88.02.14.05.41.08.81h.16c.28-.51.62-.92,1.03-1.22.45-.33.93-.5,1.42-.5.75,0,1.33.18,1.72.55.34.31.57.78.7,1.42.09.43.13,1.08.13,1.94v4.15h-1.3v-4.51c0-.75-.07-1.29-.22-1.61-.22-.48-.65-.72-1.31-.72-.47,0-.92.22-1.36.67-.3.3-.62.73-.95,1.31v4.87h-1.3v-4.85c0-.68-.02-1.27-.05-1.76-.02-.31-.09-.68-.2-1.13Z"/>
        <path class="cls-5" d="M51.13,106.82c.41,0,.83.04,1.24.13.42.09.8.2,1.16.36-.07.16-.14.32-.22.48s-.16.31-.25.46c-.13-.05-.27-.1-.42-.15s-.32-.09-.48-.13-.34-.06-.52-.09c-.18-.02-.35-.03-.53-.03-.19,0-.37.02-.54.06-.17.04-.33.1-.46.19s-.24.2-.32.34c-.08.14-.12.31-.12.52s.05.39.14.53c.09.14.21.26.37.36.16.1.34.18.55.24s.43.13.67.18c.37.09.71.19,1.03.31.32.11.59.26.83.44.23.18.41.41.55.67.13.27.19.6.19.99,0,.41-.08.77-.24,1.07s-.39.54-.67.74c-.28.19-.61.34-.98.43-.37.09-.77.14-1.2.14-.22,0-.45-.01-.68-.04-.24-.03-.47-.07-.7-.12-.23-.05-.46-.12-.68-.19-.22-.08-.43-.16-.63-.25.07-.16.14-.32.22-.47.08-.15.16-.31.25-.46.17.07.34.14.53.2.19.06.38.12.58.16s.39.08.58.11c.19.03.37.04.55.04.22,0,.44-.02.65-.08s.4-.13.56-.24c.16-.11.3-.25.39-.42.1-.17.15-.38.15-.62,0-.23-.05-.41-.14-.56s-.22-.27-.37-.37c-.16-.1-.34-.18-.55-.24-.21-.06-.43-.12-.66-.18-.35-.09-.69-.18-1-.3s-.59-.26-.83-.44c-.23-.18-.42-.4-.56-.67-.14-.26-.21-.59-.21-.99,0-.37.08-.69.23-.95s.35-.49.61-.66.55-.3.89-.38c.34-.08.69-.12,1.06-.12Z"/>
        <path class="cls-5" d="M61.53,114.59c-.39.14-.81.25-1.26.33-.45.09-.87.13-1.27.13-.61,0-1.13-.09-1.58-.27-.45-.18-.81-.43-1.1-.77s-.51-.75-.65-1.25c-.14-.49-.21-1.05-.21-1.69,0-.69.09-1.3.26-1.83.17-.53.43-.98.76-1.34.33-.36.73-.64,1.21-.82.48-.19,1.02-.28,1.62-.28.31,0,.62.03.94.09.32.06.64.14.97.24l-.32,1.06c-.26-.09-.51-.15-.73-.2s-.46-.08-.71-.08c-.86,0-1.52.25-1.98.75-.47.5-.7,1.25-.7,2.25,0,.47.03.89.1,1.26.07.37.19.69.36.95.18.26.41.46.71.6s.68.2,1.15.2c.3,0,.63-.04.98-.12.35-.08.72-.18,1.12-.29l.32,1.06Z"/>
        <path class="cls-5" d="M63.45,103.97h1.3v4.75c.34-.58.72-1.02,1.15-1.35.49-.36.98-.55,1.46-.55.73,0,1.29.18,1.7.55.35.31.59.79.72,1.42.1.48.15,1.13.15,1.94v4.15h-1.3v-4.51c0-.31,0-.56-.02-.76-.02-.2-.05-.41-.11-.63-.06-.22-.14-.39-.25-.52-.11-.12-.26-.23-.45-.31s-.43-.12-.71-.12c-.48,0-.94.23-1.38.68-.28.29-.6.73-.95,1.32v4.85h-1.3v-10.91Z"/>
        <path class="cls-5" d="M79.32,114.88h-1.74l-.95-3.66-1.52,3.66h-1.71l-2.01-7.88h1.3l1.66,6.94,1.83-4.54-.61-2.39h1.3l1.7,6.94c.55-1.26.93-2.21,1.14-2.85.26-.77.39-1.44.39-1.99,0-.48-.12-1.14-.36-1.96.46-.12.88-.21,1.25-.28.21.52.35,1.08.4,1.68.02.15.02.31.02.46,0,.83-.23,1.79-.7,2.89-.13.29-.27.61-.43.94-.16.34-.35.72-.56,1.17-.21.44-.36.74-.43.88Z"/>
        <path class="cls-5" d="M83.93,108.39l-.33-1.06c.85-.34,1.74-.51,2.67-.51.81,0,1.43.14,1.86.41.49.31.74.85.74,1.6v3.1c0,.41,0,.84.02,1.27,0,.26.03.52.08.8.04.26.09.51.16.75l-1.24.27c-.12-.34-.19-.72-.22-1.14l-.15-.02c-.63.79-1.42,1.18-2.39,1.18-.71,0-1.27-.2-1.71-.59-.43-.39-.64-.94-.64-1.66,0-.53.12-.96.35-1.3.23-.34.57-.62,1-.86.68-.37,1.62-.55,2.84-.55.16,0,.38,0,.65.02v-1.15c0-.36-.11-.63-.33-.79-.22-.16-.57-.24-1.05-.24-.69,0-1.45.15-2.29.45ZM87.59,112.66v-1.59c-.14,0-.34-.02-.6-.02-.44,0-.85.04-1.23.11-.56.11-.99.29-1.29.53-.31.24-.46.58-.46,1.03,0,.81.44,1.21,1.32,1.21.45,0,.88-.12,1.27-.36.32-.2.65-.51.99-.92Z"/>
        <path class="cls-5" d="M92.76,108.82c.16-.31.32-.6.5-.85s.38-.47.6-.64c.2-.17.41-.3.65-.38.24-.08.51-.12.81-.12.1,0,.22,0,.35.02s.26.03.38.05c-.02.25-.04.49-.07.71s-.06.45-.11.67c-.25-.05-.48-.08-.69-.1s-.41-.02-.6.02c-.22.04-.42.11-.58.22-.16.11-.32.25-.45.43-.14.18-.27.39-.4.64-.13.25-.27.54-.43.86v4.52h-1.3v-4.85c0-.32,0-.6-.01-.84,0-.24-.02-.47-.05-.69-.02-.22-.06-.44-.1-.65-.05-.22-.11-.45-.18-.72.21-.06.42-.11.63-.15.2-.05.41-.09.63-.13.07.2.13.38.17.54s.08.31.1.46c.02.15.04.3.06.45.01.15.03.33.04.53h.07Z"/>
        <path class="cls-5" d="M98.35,105.2h1.3v1.8h2.65v1.1h-2.65v4.52c0,.3,0,.53.03.69.02.16.06.28.13.38.13.18.4.27.79.27.22,0,.44-.02.64-.07.21-.05.41-.1.58-.15.14.31.27.65.39,1.01-.6.2-1.19.3-1.8.3-.44,0-.79-.05-1.06-.15-.26-.1-.47-.26-.63-.48-.16-.23-.26-.51-.31-.83s-.08-.77-.08-1.34v-4.16h-1.14v-1.1h1.14v-1.8Z"/>
        <path class="cls-5" d="M105.94,108.1c-.21,0-.4,0-.57,0-.17,0-.34-.02-.5-.03-.16-.02-.32-.05-.48-.09s-.34-.1-.53-.17c.06-.18.13-.36.19-.53s.13-.35.19-.55c.2.07.38.12.54.15.16.04.31.06.46.08.15.02.31.03.47.03s.35,0,.58,0h3.18v.91l-3.95,5.87h4.02v1.1h-5.65v-.92l3.94-5.86h-1.89Z"/>
        <path class="cls-5" d="M111.09,107.88l2.71-1.21.66.33v7.87h-1.32v-6.62l-1.59.67-.46-1.05Z"/>
        <path class="cls-5" d="M119.96,106.67c.37,0,.71.04,1.03.12.31.08.59.21.84.39.25.18.45.42.59.72.14.3.21.65.21,1.05,0,.33-.04.62-.11.86-.14.44-.45.82-.94,1.11-.24.15-.77.4-1.58.76-.01,0-.02.01-.04.02-.02,0-.03.01-.04.02,0,0-.02,0-.04.02-.29.13-.48.21-.56.25-.08.04-.22.12-.4.25s-.3.24-.36.36c-.05.11-.11.27-.17.46s-.09.42-.09.68h4.17v1.14h-5.48v-1.06c0-.38.05-.73.14-1.03.09-.31.21-.56.35-.78s.34-.41.6-.59c.26-.19.51-.34.76-.46.25-.12.56-.26.94-.41.29-.12.5-.21.65-.28.15-.07.3-.17.45-.28.16-.12.27-.26.33-.41s.09-.34.09-.56c0-.43-.13-.74-.4-.94s-.63-.3-1.08-.3c-.72,0-1.48.19-2.28.58l-.41-.98c.91-.46,1.85-.7,2.82-.7Z"/>
        <path class="cls-5" d="M129.81,116.48c-.51,0-.99-.07-1.45-.2-.47-.13-.9-.31-1.3-.55-.4-.23-.77-.52-1.1-.85s-.61-.7-.85-1.11c-.24-.41-.42-.84-.55-1.31-.13-.46-.19-.95-.19-1.45s.06-.99.19-1.45c.13-.46.31-.9.55-1.31.24-.41.52-.78.85-1.11s.7-.62,1.1-.85c.4-.24.84-.42,1.3-.55.46-.13.95-.2,1.45-.2s.98.07,1.45.2.9.32,1.31.55.77.52,1.11.86.62.7.86,1.11c.24.41.42.84.55,1.31.13.46.19.95.19,1.45,0,1-.26,1.75-.78,2.24s-1.32.74-2.4.74c-.16,0-.34,0-.53-.02-.18-.01-.37-.03-.56-.06-.04-.15-.07-.28-.09-.39,0-.04-.02-.08-.02-.12s0-.08-.01-.12c0-.04,0-.09,0-.16v-.24c0-.18,0-.33,0-.47,0-.14,0-.25,0-.34l-.07-.02c-.08.27-.17.52-.29.75-.11.23-.25.43-.4.61-.15.17-.33.31-.53.41-.2.1-.42.15-.66.15s-.43-.05-.61-.14c-.17-.09-.32-.22-.45-.37s-.23-.34-.3-.54-.14-.41-.17-.64c-.03-.15-.04-.29-.06-.44-.01-.15-.02-.31-.02-.47,0-.39.05-.78.14-1.16.09-.39.24-.73.45-1.04s.5-.56.85-.75.79-.29,1.32-.29,1.17.09,1.88.26l-.08,2.04c0,.13-.01.29-.02.49s-.01.41-.02.63c0,.22-.01.43-.02.64,0,.21,0,.38,0,.53v.15s0,.08,0,.11v.08s0,.05,0,.08c.1.02.19.02.28.03.09,0,.18,0,.27,0,.32,0,.61-.05.85-.16s.45-.25.61-.44c.16-.19.28-.41.36-.68.08-.26.12-.55.12-.86,0-.41-.05-.81-.16-1.2s-.26-.74-.46-1.08c-.2-.34-.43-.64-.71-.92-.28-.28-.58-.52-.92-.71s-.69-.35-1.08-.46c-.38-.11-.78-.16-1.19-.16s-.81.05-1.2.16c-.38.11-.74.26-1.08.46s-.64.43-.92.71c-.28.28-.52.58-.71.92-.2.34-.35.7-.46,1.08s-.16.78-.16,1.2.06.81.16,1.2.26.74.46,1.08c.19.34.43.64.71.92.28.28.59.52.92.71s.69.35,1.08.46c.39.11.78.16,1.2.16h.21v.94h-.21ZM130.99,109.04c-.13-.02-.26-.04-.38-.05-.13-.02-.26-.02-.39-.02-.4,0-.72.07-.98.22s-.45.34-.6.57c-.14.23-.24.49-.3.78-.05.29-.08.57-.08.85,0,.31.02.59.07.84.04.24.12.45.23.61s.28.25.51.25c.13,0,.25-.03.37-.09s.23-.15.32-.26c.13-.14.25-.29.36-.47.12-.18.22-.37.32-.56.1-.19.19-.39.26-.58.08-.19.14-.37.2-.54l.09-1.54Z"/>
        <path class="cls-5" d="M142.03,107c.22,0,.41,0,.57,0s.32-.02.47-.03c.15-.02.31-.04.46-.08s.33-.09.54-.15c.06.19.13.37.19.55s.13.35.19.53c-.16.06-.31.11-.45.14s-.27.06-.4.09c-.13.02-.27.04-.4.05-.13,0-.27.01-.43.02.14.23.25.48.32.76s.11.59.11.92c0,.48-.07.91-.22,1.27-.15.36-.36.67-.63.92s-.6.44-.98.57c-.38.13-.81.19-1.28.19-.24,0-.47-.01-.69-.04-.22-.03-.42-.08-.62-.15-.04.12-.08.24-.12.37s-.05.25-.05.36c0,.11.02.22.06.31.04.09.11.17.21.22.05.03.1.05.16.07.06.02.12.03.2.05.08.01.17.02.28.03.11,0,.25.01.4.01.15,0,.33,0,.53,0h.72c.79,0,1.38.17,1.79.5.4.33.61.85.61,1.54,0,.28-.05.53-.14.75-.09.22-.21.41-.37.57-.16.16-.35.3-.56.4-.22.11-.45.2-.7.27-.25.07-.52.12-.79.14-.27.03-.55.04-.83.04s-.56-.02-.84-.05c-.28-.03-.55-.07-.82-.11-.27-.05-.52-.1-.76-.16-.23-.06-.44-.11-.63-.17.07-.17.15-.34.24-.52s.18-.33.28-.48c.32.09.7.18,1.14.27s.93.13,1.46.13c.24,0,.48-.02.72-.05.24-.03.45-.09.64-.17.19-.08.34-.19.46-.33.12-.14.18-.32.18-.54s-.04-.41-.13-.54c-.08-.13-.2-.22-.34-.28s-.31-.1-.5-.11-.39-.02-.61-.02h-.99c-.3,0-.58-.02-.84-.07s-.49-.12-.69-.23c-.2-.11-.35-.25-.47-.43-.11-.18-.17-.39-.17-.65s.04-.5.13-.77c.09-.26.21-.53.36-.81-.33-.24-.59-.56-.77-.96s-.27-.86-.27-1.38c0-.47.07-.89.22-1.26.15-.37.36-.68.63-.93s.6-.45.98-.58c.38-.13.81-.19,1.28-.19.44,0,.85.06,1.23.17h.7ZM140.1,107.87c-.32,0-.59.05-.82.14s-.41.23-.56.4c-.14.17-.25.37-.32.61-.07.23-.1.49-.1.77s.03.54.1.77c.07.23.18.43.32.6.15.17.33.3.56.39.23.09.5.14.81.14s.59-.05.82-.14c.23-.09.41-.22.56-.39.14-.17.25-.37.32-.61.07-.23.1-.49.1-.77s-.03-.53-.1-.77c-.07-.24-.17-.44-.32-.61-.14-.17-.33-.3-.56-.4s-.5-.14-.82-.14Z"/>
        <path class="cls-5" d="M145.99,114.88v-4.87c0-.78-.02-1.36-.05-1.76-.02-.31-.09-.68-.2-1.13l1.24-.28c.1.3.16.6.21.88.02.11.05.38.08.83h.16c.26-.52.58-.92.97-1.21.42-.34.9-.51,1.43-.51.3,0,.6.05.88.16.28.11.52.26.71.46.29.28.49.7.61,1.26h.09c.3-.59.66-1.04,1.07-1.35.44-.35.93-.53,1.48-.53.66,0,1.17.18,1.52.55.31.31.53.78.65,1.41.09.46.14,1.1.14,1.92v4.17h-1.3v-4.53c0-.4-.02-.73-.07-.98-.07-.4-.2-.71-.38-.93-.23-.27-.55-.4-.95-.4-.47,0-.9.22-1.29.67-.24.27-.52.68-.85,1.24.01.09.02.21.02.38v4.56h-1.3v-4.53c0-.64-.06-1.13-.19-1.48-.21-.56-.61-.84-1.2-.84-.45,0-.89.23-1.3.68-.24.26-.53.7-.86,1.31v4.85h-1.3Z"/>
        <path class="cls-5" d="M159.64,108.39l-.33-1.06c.85-.34,1.74-.51,2.67-.51.81,0,1.43.14,1.86.41.49.31.74.85.74,1.6v3.1c0,.41,0,.84.02,1.27,0,.26.03.52.08.8.04.26.09.51.16.75l-1.24.27c-.12-.34-.19-.72-.22-1.14l-.15-.02c-.63.79-1.42,1.18-2.39,1.18-.71,0-1.27-.2-1.71-.59-.43-.39-.64-.94-.64-1.66,0-.53.12-.96.35-1.3.23-.34.57-.62,1-.86.68-.37,1.62-.55,2.84-.55.16,0,.38,0,.65.02v-1.15c0-.36-.11-.63-.33-.79-.22-.16-.57-.24-1.05-.24-.69,0-1.45.15-2.29.45ZM163.31,112.66v-1.59c-.14,0-.34-.02-.6-.02-.44,0-.85.04-1.23.11-.56.11-.99.29-1.29.53-.31.24-.46.58-.46,1.03,0,.81.44,1.21,1.32,1.21.45,0,.88-.12,1.27-.36.32-.2.65-.51.99-.92Z"/>
        <path class="cls-5" d="M167.83,103.95c.23,0,.43.08.61.24.16.18.25.38.25.62s-.08.45-.25.61c-.17.17-.37.26-.61.26s-.45-.09-.62-.26c-.17-.16-.26-.37-.26-.61s.08-.45.26-.62c.17-.16.38-.24.62-.24ZM167.16,107h1.3v7.88h-1.3v-7.88Z"/>
        <path class="cls-5" d="M172.27,111.82c0,.41,0,.76.02,1.04.01.28.02.53.04.74.02.21.04.4.07.58s.07.36.13.57c-.21.06-.42.11-.64.16-.21.05-.42.09-.64.12-.1-.33-.17-.63-.22-.9s-.06-.54-.06-.8v-9.33h1.3v7.83Z"/>
        <path class="cls-5" d="M175.95,113.18c.13,0,.25.02.36.07.11.05.21.11.3.2.18.18.27.4.27.66s-.09.47-.27.65c-.09.09-.19.15-.3.2-.11.05-.23.07-.36.07s-.24-.02-.35-.07c-.11-.05-.21-.12-.29-.2-.09-.09-.15-.18-.2-.3s-.07-.23-.07-.36.02-.25.07-.36c.05-.11.11-.21.2-.3.18-.18.39-.27.65-.27Z"/>
        <path class="cls-5" d="M185.16,114.59c-.39.14-.81.25-1.26.33-.45.09-.87.13-1.27.13-.61,0-1.13-.09-1.58-.27-.45-.18-.81-.43-1.1-.77s-.51-.75-.65-1.25c-.14-.49-.21-1.05-.21-1.69,0-.69.09-1.3.26-1.83.17-.53.43-.98.76-1.34.33-.36.73-.64,1.21-.82.48-.19,1.02-.28,1.62-.28.31,0,.62.03.94.09.32.06.64.14.97.24l-.32,1.06c-.26-.09-.51-.15-.73-.2s-.46-.08-.71-.08c-.86,0-1.52.25-1.98.75-.47.5-.7,1.25-.7,2.25,0,.47.03.89.1,1.26.07.37.19.69.36.95.18.26.41.46.71.6s.68.2,1.15.2c.3,0,.63-.04.98-.12.35-.08.72-.18,1.12-.29l.32,1.06Z"/>
        <path class="cls-5" d="M189.96,106.82c.25,0,.51.02.77.06.27.04.53.11.79.22.26.11.5.26.73.45.23.19.43.43.61.74.18.31.32.68.42,1.11.1.43.15.94.15,1.54s-.05,1.11-.15,1.54c-.1.43-.24.8-.42,1.1-.18.31-.38.56-.61.75s-.47.34-.73.45c-.26.11-.52.19-.79.22-.27.04-.53.06-.77.06s-.5-.02-.76-.06c-.27-.04-.53-.11-.79-.22-.26-.11-.5-.26-.73-.45-.23-.19-.43-.44-.61-.75-.18-.3-.31-.67-.42-1.1-.1-.43-.15-.94-.15-1.54s.05-1.11.15-1.54c.1-.43.24-.8.42-1.11.18-.3.38-.55.61-.74.23-.19.47-.34.73-.45.26-.11.52-.18.78-.22.26-.04.52-.06.76-.06ZM189.96,107.89c-.29,0-.56.05-.81.14s-.48.25-.67.48c-.19.23-.35.54-.47.93-.12.39-.18.89-.18,1.5s.06,1.1.18,1.5c.11.39.27.7.47.93.19.23.42.39.67.48.26.09.53.13.81.13s.57-.04.83-.13c.26-.09.49-.25.68-.48.2-.23.35-.54.47-.93.11-.39.17-.89.17-1.5s-.06-1.11-.17-1.5c-.11-.39-.27-.7-.47-.93-.19-.23-.42-.39-.68-.48s-.54-.14-.83-.14Z"/>
        <path class="cls-5" d="M195.46,114.88v-4.87c0-.78-.02-1.36-.05-1.76-.02-.31-.09-.68-.2-1.13l1.24-.28c.1.3.16.6.21.88.02.11.05.38.08.83h.16c.26-.52.58-.92.97-1.21.42-.34.9-.51,1.43-.51.3,0,.6.05.88.16.28.11.52.26.71.46.29.28.49.7.61,1.26h.09c.3-.59.66-1.04,1.07-1.35.44-.35.93-.53,1.48-.53.66,0,1.17.18,1.52.55.31.31.53.78.65,1.41.09.46.14,1.1.14,1.92v4.17h-1.3v-4.53c0-.4-.02-.73-.07-.98-.07-.4-.2-.71-.38-.93-.23-.27-.55-.4-.95-.4-.47,0-.9.22-1.29.67-.24.27-.52.68-.85,1.24.01.09.02.21.02.38v4.56h-1.3v-4.53c0-.64-.06-1.13-.19-1.48-.21-.56-.61-.84-1.2-.84-.45,0-.89.23-1.3.68-.24.26-.53.7-.86,1.31v4.85h-1.3Z"/>
      </g>
      <g>
        <rect class="cls-2" x="245.26" y="1.73" width="45.99" height="45.99"/>
        <rect class="cls-2" x="302.09" y="58.56" width="45.99" height="45.99"/>
        <rect class="cls-4" x="245.26" y="115.4" width="45.99" height="45.99"/>
        <rect class="cls-4" x="358.93" y="1.73" width="45.99" height="45.99"/>
        <rect class="cls-4" x="329.24" y="36.75" width="45.99" height="45.99"/>
        <rect class="cls-4" x="279.09" y="81.56" width="45.99" height="45.99"/>
        <rect class="cls-2" x="358.93" y="115.4" width="45.99" height="45.99"/>
        <polygon class="cls-3" points="259.77 70.39 246.87 70.39 240.42 81.56 246.87 92.73 259.77 92.73 266.22 81.56 259.77 70.39"/>
        <polygon class="cls-3" points="313.92 6.45 313.92 19.34 325.09 25.79 336.26 19.34 336.26 6.45 325.09 0 313.92 6.45"/>
        <polygon class="cls-3" points="370.74 143.01 379.86 152.12 392.31 148.79 395.65 136.33 386.53 127.21 374.08 130.55 370.74 143.01"/>
        <polygon class="cls-3" points="255.8 28.06 264.91 37.18 277.37 33.84 280.71 21.39 271.59 12.27 259.13 15.61 255.8 28.06"/>
        <polygon class="cls-3" points="313.92 143.78 313.92 156.67 325.09 163.12 336.26 156.67 336.26 143.78 325.09 137.33 313.92 143.78"/>
        <polygon class="cls-3" points="403.3 70.39 390.41 70.39 383.96 81.56 390.41 92.73 403.3 92.73 409.75 81.56 403.3 70.39"/>
        <polygon class="cls-1" points="364.89 95.43 346.94 95.43 337.97 110.97 346.94 126.51 364.89 126.51 373.86 110.97 364.89 95.43"/>
        <polygon class="cls-1" points="306.01 36.75 288.07 36.75 279.09 52.29 288.07 67.83 306.01 67.83 314.99 52.29 306.01 36.75"/>
      </g>
    </g>
  </g>
</svg>