<?xml version="1.0" encoding="UTF-8"?>
<svg id="Layer_2" data-name="Layer 2" xmlns="http://www.w3.org/2000/svg" viewBox="0 0 184.91 56.46">
  <defs>
    <style>
      .cls-1 {
        fill: #9e1f63;
      }

      .cls-1, .cls-2, .cls-3, .cls-4, .cls-5 {
        stroke-width: 0px;
      }

      .cls-2 {
        fill: #ef4136;
      }

      .cls-3 {
        fill: #27aae1;
      }

      .cls-4 {
        fill: #fff;
      }

      .cls-5 {
        fill: #00a79d;
      }
    </style>
  </defs>
  <g id="Layer_1-2" data-name="Layer 1">
    <g>
      <g>
        <path class="cls-4" d="M42.82,11.98l2.3.53s0,.07,0,.11v.14c0,.09,0,.19,0,.3s0,.19-.01.27c-.1.35-.21.67-.33.95s-.27.56-.43.81c-.19.29-.42.56-.68.81s-.58.48-.95.72l.53,1.27c.08.19.15.34.2.47s.11.24.16.33c.09.17.17.32.26.43s.19.24.32.36c-.17.17-.34.34-.52.5s-.35.33-.52.49l-.23-.2c-.11-.11-.21-.22-.3-.32s-.16-.21-.23-.32-.14-.23-.2-.36-.13-.28-.2-.44l-2.67-6.24,1.41-.59,1.46,3.44c.22-.14.41-.3.56-.48s.28-.38.39-.61c.07-.15.14-.3.2-.47s.11-.34.15-.52l-.94-.22.28-1.15Z"/>
        <path class="cls-4" d="M48.19,13.53c-.2,0-.38,0-.53,0s-.3-.02-.44-.04-.28-.04-.43-.08-.31-.09-.5-.16c.06-.21.13-.42.19-.62s.13-.41.21-.61c.2.05.37.1.51.13s.28.06.41.07.27.03.41.03.32,0,.53,0h.71c.25,0,.49.03.73.08s.45.16.64.31c.19.15.34.35.46.62s.18.6.18,1.03v4.06h-1.6v-3.65c0-.24-.01-.44-.03-.59s-.07-.27-.14-.36-.18-.14-.32-.18-.33-.05-.56-.05h-.42Z"/>
        <path class="cls-4" d="M55.36,12.26v6.09h-1.6v-4.82h-1.03v-1.27h2.62Z"/>
        <path class="cls-4" d="M59.57,12.26v6.09h-1.6v-4.82h-1.03v-1.27h2.62Z"/>
        <path class="cls-4" d="M63,17.17c.08,0,.16.01.24.02s.17,0,.26,0c.23,0,.47-.02.72-.06s.49-.12.72-.22.46-.25.67-.43.39-.41.54-.69c.22-.39.38-.79.46-1.21s.13-.83.13-1.25c0-.17,0-.33-.02-.5s-.03-.33-.05-.5c.17-.04.31-.08.43-.11s.24-.05.35-.08.23-.04.36-.06.29-.04.47-.06c.04.17.07.35.08.55s.02.4.02.61c0,.19,0,.38-.02.56s-.03.35-.05.51c-.2,1.45-.72,2.52-1.56,3.23s-2.02,1.06-3.52,1.06c-.26,0-.52,0-.8-.03s-.57-.05-.87-.08l-.26-3.53c-.02-.2-.03-.38-.04-.54s-.02-.29-.03-.41-.02-.23-.04-.34-.04-.21-.06-.31-.06-.21-.1-.33-.09-.24-.15-.39c.23-.09.46-.19.7-.29s.47-.19.71-.26c.11.23.19.43.25.62s.1.38.13.57.05.39.07.61.03.46.05.74l.19,2.6ZM63.57,14.26c.06-.16.11-.3.15-.42s.08-.22.1-.31.05-.17.06-.25.02-.17.02-.25v-.09s0-.06,0-.1c0-.06,0-.13-.01-.2s-.02-.15-.04-.24c.26-.08.51-.15.76-.2s.51-.11.76-.17c.05.18.09.33.11.48s.04.28.04.42c0,.11,0,.23-.03.34s-.04.24-.08.37-.08.27-.13.42-.11.32-.18.51l-.39,1.04c-.16-.04-.3-.08-.41-.11s-.22-.06-.32-.1-.2-.08-.31-.12-.24-.1-.39-.18l.3-.83Z"/>
        <path class="cls-4" d="M75.71,12.26v7.94h-1.6v-6.67h-1.2v-1.27h2.8Z"/>
        <path class="cls-4" d="M78.99,13.53c-.2,0-.38,0-.53,0s-.3-.02-.44-.04-.28-.04-.43-.08-.31-.09-.5-.16c.06-.21.13-.42.19-.62s.13-.41.21-.61c.2.05.37.1.51.13s.28.06.41.07.27.03.41.03.32,0,.53,0h3.38v1.27h-1.18v4.82h-1.6v-4.82h-.96Z"/>
        <path class="cls-4" d="M85.56,13.53c-.2,0-.38,0-.53,0s-.3-.02-.44-.04-.28-.04-.43-.08-.31-.09-.5-.16c.06-.21.13-.42.19-.62s.13-.41.21-.61c.2.05.37.1.51.13s.28.06.41.07.27.03.41.03.32,0,.53,0h.71c.25,0,.49.03.73.08s.45.16.64.31c.19.15.34.35.46.62s.18.6.18,1.03v4.06h-1.6v-3.65c0-.24-.01-.44-.03-.59s-.07-.27-.14-.36-.18-.14-.32-.18-.33-.05-.56-.05h-.42Z"/>
        <path class="cls-4" d="M92.87,12.26v2.23c0,.21,0,.39,0,.53s-.01.27-.02.39-.03.23-.05.34-.04.23-.08.36l-1.58-.23c.02-.12.04-.22.05-.32s.03-.2.04-.31.02-.23.03-.37,0-.3,0-.49v-.85h-1.34v-1.27h2.94Z"/>
        <path class="cls-4" d="M56.74,26.24c-.07-.22-.13-.43-.17-.63-.04-.2-.06-.4-.06-.59,0-.23.03-.44.08-.66.06-.21.15-.43.28-.64-.06,0-.12,0-.17-.01-.05,0-.11-.01-.16-.02-.05,0-.11-.02-.17-.04-.06-.02-.12-.04-.18-.06.03-.08.06-.16.09-.25s.06-.17.09-.25c.1.03.18.05.25.07.07.02.14.03.21.04.07,0,.14.01.22.02s.17,0,.27,0h.89c.14,0,.29.02.43.05.14.03.27.09.38.18.11.09.2.21.27.37s.1.36.1.61v2.34h-.59v-2.28c0-.14,0-.26-.03-.36-.02-.1-.05-.17-.1-.23-.05-.06-.12-.1-.21-.12-.09-.02-.2-.04-.34-.04h-.67c-.13.18-.22.37-.27.58-.05.21-.08.44-.08.66,0,.18.01.37.04.54.03.18.07.35.11.51l.11.37c0,.06,0,.12-.01.18,0,.06-.01.12-.02.19h-1.35v-.51h.75Z"/>
        <path class="cls-4" d="M61.56,23.2v1.11c0,.12,0,.23,0,.31s0,.16-.01.23-.02.13-.03.2-.03.13-.04.21l-.58-.09c.01-.07.02-.13.03-.19,0-.06.02-.12.02-.18s.01-.14.02-.22c0-.08,0-.18,0-.29v-.57h-.78v-.52h1.37Z"/>
        <path class="cls-4" d="M63.19,23.04s.11.02.19.04c.08.02.16.03.26.05.09.02.19.04.29.06.1.02.2.04.3.07s.18.05.26.07c.08.02.14.04.19.06.12.05.22.1.3.17.08.07.14.14.19.22.04.08.08.17.09.27.02.1.03.21.03.32v1.7c0,.05,0,.1,0,.15,0,.05,0,.1-.02.15,0,.05-.02.11-.03.17-.01.06-.03.13-.05.2h-2.82v-.52h2.33v-1.78c0-.12,0-.21-.02-.29-.01-.08-.04-.14-.08-.19-.04-.05-.09-.09-.16-.12-.06-.03-.15-.06-.25-.09-.1-.02-.2-.05-.31-.08s-.22-.05-.32-.07l-.39.88.69.41-.28.45-1.13-.67.74-1.65Z"/>
        <path class="cls-4" d="M67.09,23.72c-.1,0-.19,0-.27,0s-.16,0-.23-.02-.15-.02-.22-.04c-.07-.02-.16-.05-.25-.08.03-.08.06-.16.09-.25s.06-.17.09-.25c.1.03.18.05.25.07s.14.03.21.04c.07,0,.14.01.22.02s.17,0,.27,0h.32c.14,0,.29.02.43.05.14.03.27.09.38.18.11.09.2.21.27.37s.1.36.1.61v2.34h-.59v-2.28c0-.14-.01-.26-.03-.36-.02-.1-.06-.17-.11-.23-.05-.06-.12-.1-.21-.12-.09-.02-.2-.04-.34-.04h-.37Z"/>
        <path class="cls-4" d="M71.28,23.2v1.84c0,.11.02.21.05.31.03.1.07.2.11.3.07.18.13.36.19.54.06.18.11.37.16.56h-.55c-.03-.12-.06-.24-.1-.37-.04-.13-.08-.25-.13-.37l-.08-.22c-.07.08-.13.16-.18.21-.05.06-.09.11-.13.15-.04.04-.08.08-.11.12-.03.04-.07.07-.11.11-.12.12-.25.22-.39.3-.14.08-.3.13-.49.16-.02-.09-.04-.17-.06-.26-.02-.09-.04-.18-.05-.26.08-.02.15-.04.21-.06s.12-.05.18-.08c.06-.03.11-.07.16-.11.05-.04.1-.09.16-.16l.62-.67v-1.52h-.78v-.52h1.35Z"/>
        <path class="cls-4" d="M74.98,26.24c-.07-.22-.13-.43-.17-.63-.04-.2-.06-.4-.06-.59,0-.23.03-.44.08-.66.06-.21.15-.43.28-.64-.06,0-.12,0-.17-.01-.05,0-.11-.01-.16-.02-.05,0-.11-.02-.17-.04-.06-.02-.12-.04-.18-.06.03-.08.06-.16.09-.25s.06-.17.09-.25c.1.03.18.05.25.07.07.02.14.03.21.04.07,0,.14.01.22.02s.17,0,.27,0h.89c.14,0,.29.02.43.05.14.03.27.09.38.18.11.09.2.21.27.37s.1.36.1.61v2.34h-.59v-2.28c0-.14,0-.26-.03-.36-.02-.1-.05-.17-.1-.23-.05-.06-.12-.1-.21-.12-.09-.02-.2-.04-.34-.04h-.67c-.13.18-.22.37-.27.58-.05.21-.08.44-.08.66,0,.18.01.37.04.54.03.18.07.35.11.51l.11.37c0,.06,0,.12-.01.18,0,.06-.01.12-.02.19h-1.35v-.51h.75Z"/>
        <path class="cls-4" d="M79.56,23.72c-.1,0-.19,0-.27,0-.08,0-.16,0-.23-.02s-.15-.02-.22-.04c-.08-.02-.16-.05-.25-.08.03-.08.06-.16.09-.25s.06-.17.09-.25c.1.03.18.05.25.07.07.02.14.03.21.04.07,0,.14.01.22.02s.17,0,.27,0h.1c.14,0,.29.02.42.05.14.03.26.09.38.18.11.09.2.21.27.36s.1.35.1.6v1.85h.63v.52h-3.24v-.52h2.02v-1.76c0-.14,0-.26-.03-.36-.02-.1-.06-.17-.11-.23-.05-.06-.12-.1-.21-.12s-.2-.04-.34-.04h-.15Z"/>
        <path class="cls-4" d="M83.01,24.78c-.15-.17-.27-.33-.37-.47-.1-.14-.18-.28-.24-.41-.06-.13-.11-.25-.15-.35s-.06-.2-.09-.29c.08-.03.17-.07.27-.1.09-.03.19-.06.29-.08,0,.03.02.05.03.08,0,.03.02.05.03.08.02.07.05.15.07.22.03.07.06.15.11.24.05.09.1.18.17.29s.16.22.26.35c.04.04.07.08.1.12.03.04.07.08.11.12s.09.1.14.16c.06.06.13.14.21.24.07-.04.13-.09.18-.14.05-.05.1-.11.14-.17.04-.06.08-.13.11-.2s.07-.16.11-.25c.03-.09.06-.18.09-.26s.05-.17.08-.26l-.49-.15.13-.47.93.26-.02.44c-.03.11-.07.23-.11.36-.04.13-.09.24-.13.34-.04.11-.09.21-.14.29-.04.09-.1.16-.15.23-.05.07-.12.13-.18.19-.07.06-.14.11-.23.16l.77.91c0,.06-.01.13-.02.2-.01.07-.03.16-.06.27h-2.7v-.52h2l-1.26-1.45Z"/>
        <path class="cls-4" d="M88.07,23.62c.02-.09.05-.17.07-.25.02-.08.05-.17.07-.25l1.01.27c0,.08.01.16.02.24s0,.16,0,.24c-.02.19-.06.38-.1.56-.04.18-.1.36-.17.53s-.16.34-.26.5c-.1.16-.22.31-.36.46-.14.15-.31.29-.49.41-.18.12-.38.23-.59.34-.16.07-.32.14-.49.2s-.35.12-.55.17l-.17-.53c.18-.05.36-.11.55-.17.19-.06.38-.14.57-.23-.12-.32-.24-.64-.36-.96-.12-.32-.24-.64-.36-.96-.03-.08-.06-.15-.08-.2-.02-.05-.06-.09-.09-.13-.04-.04-.09-.08-.16-.11s-.16-.08-.27-.13c.04-.08.08-.16.13-.25.04-.08.09-.16.13-.25.12.05.23.1.32.14s.17.09.23.14c.06.05.12.1.16.16s.08.14.12.24c.02.06.05.12.07.18s.05.13.08.2.06.16.09.25c.04.09.08.21.12.34s.1.28.16.45.13.37.21.6c.15-.11.28-.24.39-.38.11-.14.2-.3.28-.47.08-.17.14-.35.19-.55.05-.19.08-.4.11-.63l-.58-.16Z"/>
        <path class="cls-4" d="M89.86,26.78c.04-.23.07-.42.1-.59.03-.17.05-.32.08-.45s.04-.25.06-.35c.02-.1.03-.21.05-.3.02-.1.03-.2.05-.31.02-.1.04-.22.05-.36.01-.11.01-.21,0-.29,0-.08-.03-.16-.06-.23-.03-.07-.07-.15-.13-.24-.05-.08-.12-.19-.2-.31.05-.03.09-.05.12-.08.04-.02.07-.05.11-.07s.08-.05.12-.07c.04-.03.1-.06.16-.09.05.07.1.14.13.19.04.05.07.11.1.15.03.05.06.09.08.14s.05.09.07.14c.1-.09.19-.17.28-.24.09-.07.18-.13.27-.17.09-.05.19-.08.29-.11s.21-.04.34-.04c.3,0,.55.08.75.23.2.16.33.4.4.72.02.09.03.2.04.34,0,.14.01.28.02.42,0,.15,0,.29,0,.42,0,.14,0,.26,0,.35,0,.16,0,.31-.01.45s-.01.26-.02.36c0,.05,0,.1-.01.16,0,.05-.01.11-.02.17h-1.68v-.52h1.15s0-.08,0-.13c0-.05,0-.11,0-.18,0-.08,0-.18,0-.3,0-.12,0-.28,0-.47,0-.09,0-.17,0-.27,0-.09,0-.18-.01-.26,0-.08-.01-.16-.02-.23s-.02-.14-.03-.19c-.02-.08-.05-.16-.08-.23-.03-.07-.07-.13-.12-.18s-.11-.08-.18-.11c-.07-.03-.15-.04-.24-.04-.1,0-.2.02-.29.05-.09.03-.18.07-.26.13-.08.05-.17.12-.24.19s-.15.14-.22.22c-.04.25-.08.48-.11.67-.03.19-.06.37-.08.52-.03.15-.05.29-.07.41-.02.12-.04.23-.06.34-.02.1-.04.21-.05.3s-.03.2-.05.31h-.59Z"/>
        <path class="cls-4" d="M54.02,31.46c.26,0,.5.05.72.15.22.1.42.23.58.4.16.17.29.37.38.6.09.23.14.48.14.73s-.05.51-.14.74c-.09.23-.22.43-.38.6-.16.17-.35.31-.58.41-.22.1-.46.15-.72.15s-.5-.05-.73-.15c-.22-.1-.41-.23-.58-.41s-.29-.37-.38-.6c-.09-.23-.14-.48-.14-.74s.05-.5.14-.73c.09-.23.22-.43.38-.6s.36-.31.58-.4c.22-.1.46-.15.73-.15ZM54.02,32c-.18,0-.34.03-.49.1-.15.07-.28.17-.39.29-.11.12-.19.27-.26.43-.06.16-.09.34-.09.53s.03.37.09.53c.06.17.15.31.26.43.11.12.24.22.39.29.15.07.31.1.49.1s.34-.03.49-.1c.15-.07.28-.17.39-.29.11-.12.19-.27.25-.43.06-.17.09-.34.09-.53s-.03-.37-.09-.53-.15-.31-.25-.43c-.11-.12-.24-.22-.39-.29-.15-.07-.31-.1-.49-.1Z"/>
        <path class="cls-4" d="M56.46,36.09v-.53c.42-.03.77-.08,1.03-.15.34-.1.61-.23.8-.41.2-.18.29-.42.29-.71,0-.26-.07-.45-.22-.59-.14-.13-.33-.19-.57-.19-.26,0-.52.06-.79.19l-.3-.21.11-1.91h.8c.32,0,.55,0,.7-.03.14-.02.3-.06.46-.12l.2.49c-.15.06-.31.1-.5.13-.12.02-.29.03-.49.03h-.64l-.06,1.06c.21-.07.42-.1.64-.1.39,0,.69.11.9.32.12.12.21.27.27.44s.09.35.09.53c0,.77-.48,1.29-1.45,1.58-.39.12-.82.18-1.28.19Z"/>
        <path class="cls-4" d="M61.25,31.45l.56.12c-.03.31-.14.64-.32.99l-1.04,2.07h1.44v-.94h.57v.94h.64v.51h-.64v.94h-.57v-.94h-2.03l-.14-.42,1.12-2.21c.13-.25.22-.44.26-.56.05-.12.09-.29.14-.5Z"/>
        <path class="cls-4" d="M64.05,32.99h2.58v.51h-2.58v-.51Z"/>
        <path class="cls-4" d="M69.99,32.75c.11.05.2.12.29.18s.16.15.22.24c.06.09.11.19.14.31s.05.25.05.4c0,.21-.04.4-.12.57-.08.17-.19.31-.33.42-.14.11-.3.2-.49.26-.19.06-.39.09-.61.09s-.43-.03-.62-.09c-.19-.06-.35-.15-.49-.27-.14-.12-.25-.26-.33-.43-.08-.17-.12-.37-.12-.58,0-.13.02-.26.05-.37.04-.11.09-.22.15-.32.07-.1.14-.18.23-.26s.19-.15.3-.21c-.07-.05-.13-.1-.19-.16-.06-.06-.11-.13-.16-.2-.04-.08-.08-.16-.1-.26-.03-.1-.04-.21-.04-.33,0-.18.04-.33.11-.46.07-.13.17-.25.29-.34.12-.09.26-.16.42-.21.16-.05.32-.07.5-.07s.35.02.51.07c.16.05.3.12.42.21.12.09.22.21.29.34.07.14.11.29.11.46,0,.2-.04.39-.13.55-.09.17-.21.31-.37.44ZM69.15,34.75c.15,0,.29-.02.41-.06.12-.04.22-.1.31-.17s.15-.17.19-.27c.04-.11.07-.23.07-.36,0-.12-.02-.22-.06-.3s-.09-.16-.16-.22-.15-.11-.24-.16c-.09-.04-.19-.08-.29-.11-.1-.03-.2-.06-.31-.08-.11-.02-.21-.05-.3-.07-.19.11-.34.24-.43.39-.1.15-.15.33-.15.53,0,.14.02.26.07.37.04.11.11.2.19.28.08.08.19.14.31.18.12.04.26.06.41.06ZM69.16,31.14c-.11,0-.21.01-.3.04-.09.03-.17.06-.24.12-.07.05-.12.12-.16.19s-.06.17-.06.27c0,.15.04.28.12.37.08.09.17.17.29.22.12.06.24.1.38.13.14.03.26.06.38.09.07-.06.13-.13.18-.19s.09-.12.12-.19c.03-.07.05-.13.06-.21.01-.07.02-.15.02-.23,0-.1-.02-.2-.06-.27s-.1-.14-.17-.19c-.07-.05-.15-.09-.25-.11s-.19-.04-.3-.04Z"/>
        <path class="cls-4" d="M72.86,32.07h-.54c-.2,0-.37,0-.49-.03-.18-.03-.35-.07-.5-.13l.2-.49c.16.06.31.1.45.12.15.02.38.03.7.03h.9v.39l-.87,1.07c.17-.01.33,0,.47.04s.26.11.36.19c.1.08.18.18.25.3s.12.23.15.36c.03.13.05.26.05.39,0,.77-.48,1.29-1.45,1.58-.39.12-.82.18-1.28.19v-.53c.42-.03.77-.08,1.03-.15.34-.1.61-.23.8-.41.2-.18.29-.41.29-.71,0-.26-.07-.45-.21-.58-.14-.13-.33-.2-.57-.2-.16,0-.34.04-.54.11l-.16-.32.94-1.21Z"/>
        <path class="cls-4" d="M76.44,31.46c.26,0,.5.05.72.15.22.1.42.23.58.4.16.17.29.37.38.6.09.23.14.48.14.73s-.05.51-.14.74c-.09.23-.22.43-.38.6-.16.17-.35.31-.58.41-.22.1-.46.15-.72.15s-.5-.05-.73-.15c-.22-.1-.41-.23-.58-.41s-.29-.37-.38-.6c-.09-.23-.14-.48-.14-.74s.05-.5.14-.73c.09-.23.22-.43.38-.6s.36-.31.58-.4c.22-.1.46-.15.73-.15ZM76.44,32c-.18,0-.34.03-.49.1-.15.07-.28.17-.39.29-.11.12-.19.27-.26.43-.06.16-.09.34-.09.53s.03.37.09.53c.06.17.15.31.26.43.11.12.24.22.39.29.15.07.31.1.49.1s.34-.03.49-.1c.15-.07.28-.17.39-.29.11-.12.19-.27.25-.43.06-.17.09-.34.09-.53s-.03-.37-.09-.53-.15-.31-.25-.43c-.11-.12-.24-.22-.39-.29-.15-.07-.31-.1-.49-.1Z"/>
        <path class="cls-4" d="M80.33,31.45l.56.12c-.03.31-.14.64-.32.99l-1.04,2.07h1.44v-.94h.57v.94h.64v.51h-.64v.94h-.57v-.94h-2.03l-.14-.42,1.12-2.21c.13-.25.22-.44.26-.56.05-.12.09-.29.14-.5Z"/>
        <path class="cls-4" d="M83.11,36.06v-.46c.57.02,1.01-.08,1.33-.31s.52-.6.62-1.11c-.15.1-.31.18-.49.23-.18.06-.35.09-.51.09-.41,0-.73-.12-.96-.37-.24-.27-.36-.63-.36-1.1,0-.21.03-.4.09-.58.06-.18.15-.35.27-.5.12-.15.28-.27.48-.36.2-.09.42-.13.68-.13.35,0,.64.08.88.23s.4.37.5.64c.1.27.15.59.14.97-.01.51-.09.97-.24,1.39-.09.27-.22.5-.39.69s-.35.34-.57.44c-.22.1-.44.17-.68.22-.24.04-.5.05-.77.04ZM85.12,33.61c.03-.13.04-.28.04-.45s-.02-.33-.05-.47c-.03-.14-.08-.27-.15-.38s-.17-.2-.29-.26c-.12-.06-.27-.09-.44-.09-.29,0-.52.1-.68.29s-.24.45-.24.78c0,.36.08.61.24.78.15.15.35.22.61.22.15,0,.31-.04.48-.11.17-.07.33-.17.47-.29Z"/>
        <path class="cls-4" d="M87.78,31.45c.17,0,.32.02.46.06.14.04.27.1.38.18.11.08.2.19.27.32.06.14.1.29.1.47,0,.15-.02.28-.05.39-.06.2-.21.37-.42.5-.11.07-.35.18-.71.34,0,0-.01,0-.02,0,0,0-.01,0-.02,0,0,0,0,0-.02,0-.13.06-.22.09-.25.11-.04.02-.1.06-.18.11s-.14.11-.16.16c-.02.05-.05.12-.08.21s-.04.19-.04.31h1.88v.51h-2.47v-.48c0-.17.02-.33.06-.47.04-.14.09-.25.16-.35s.15-.19.27-.27c.12-.08.23-.15.34-.21.11-.06.25-.12.43-.19.13-.05.23-.09.29-.13.07-.03.13-.07.21-.13.07-.05.12-.12.15-.19s.04-.15.04-.25c0-.19-.06-.33-.18-.42s-.28-.13-.49-.13c-.33,0-.67.09-1.03.26l-.18-.44c.41-.21.84-.31,1.27-.31Z"/>
        <path class="cls-4" d="M91.45,31.46c.26,0,.5.05.72.15.22.1.42.23.58.4.16.17.29.37.38.6.09.23.14.48.14.73s-.05.51-.14.74c-.09.23-.22.43-.38.6-.16.17-.35.31-.58.41-.22.1-.46.15-.72.15s-.5-.05-.73-.15c-.22-.1-.41-.23-.58-.41s-.29-.37-.38-.6c-.09-.23-.14-.48-.14-.74s.05-.5.14-.73c.09-.23.22-.43.38-.6s.36-.31.58-.4c.22-.1.46-.15.73-.15ZM91.45,32c-.18,0-.34.03-.49.1-.15.07-.28.17-.39.29-.11.12-.19.27-.26.43-.06.16-.09.34-.09.53s.03.37.09.53c.06.17.15.31.26.43.11.12.24.22.39.29.15.07.31.1.49.1s.34-.03.49-.1c.15-.07.28-.17.39-.29.11-.12.19-.27.25-.43.06-.17.09-.34.09-.53s-.03-.37-.09-.53-.15-.31-.25-.43c-.11-.12-.24-.22-.39-.29-.15-.07-.31-.1-.49-.1Z"/>
        <path class="cls-4" d="M2.91,40v3.63c0,.23-.04.42-.11.58s-.18.3-.31.41-.29.19-.47.24c-.18.05-.38.08-.59.08-.19,0-.38-.02-.58-.05-.19-.03-.38-.08-.55-.14.03-.08.06-.16.09-.23.03-.08.06-.15.1-.23.05.02.12.04.2.06s.16.04.24.06c.09.02.17.03.26.04.09.01.18.02.26.02.13,0,.25-.02.36-.05.11-.04.2-.09.27-.16s.13-.16.17-.26c.04-.1.06-.22.06-.36v-.77h-.07c-.06.11-.13.21-.21.3-.08.09-.16.18-.26.25s-.19.13-.3.17c-.11.04-.22.06-.34.06-.17,0-.31-.02-.43-.06-.12-.04-.23-.09-.32-.17-.09-.07-.16-.17-.21-.28-.06-.11-.1-.24-.13-.38-.02-.13-.04-.27-.05-.42,0-.15-.01-.3-.01-.46v-1.88h.59v2.04c0,.15,0,.29.02.42.01.13.04.24.09.33.05.09.12.17.21.22.09.05.22.08.37.08.12,0,.23-.03.33-.08.1-.06.2-.13.28-.21.09-.09.17-.18.24-.29.07-.1.14-.21.2-.31v-2.2h.59Z"/>
        <path class="cls-4" d="M4.3,40.63l-.15-.48c.38-.15.78-.23,1.2-.23.37,0,.65.06.84.18.22.14.33.38.33.72v1.4c0,.19,0,.38,0,.57,0,.12.01.24.03.36.02.12.04.23.07.34l-.56.12c-.05-.15-.09-.32-.1-.51h-.07c-.28.35-.64.53-1.08.53-.32,0-.58-.09-.77-.26-.19-.18-.29-.43-.29-.75,0-.24.05-.44.16-.59.11-.15.26-.28.45-.39.31-.17.73-.25,1.28-.25.07,0,.17,0,.29,0v-.52c0-.16-.05-.28-.15-.36-.1-.07-.26-.11-.47-.11-.31,0-.66.07-1.03.21ZM5.95,42.55v-.72c-.06,0-.15,0-.27,0-.2,0-.38.02-.55.05-.25.05-.45.13-.58.24-.14.11-.21.26-.21.47,0,.36.2.55.59.55.21,0,.4-.05.57-.16.15-.09.29-.23.45-.41Z"/>
        <path class="cls-4" d="M8.28,40.82c.07-.14.15-.27.23-.38s.17-.21.27-.29c.09-.08.19-.13.29-.17.11-.04.23-.06.37-.06.04,0,.1,0,.16,0s.12.01.17.02c0,.11-.02.22-.03.32s-.03.2-.05.3c-.11-.02-.22-.04-.31-.04s-.18,0-.27,0c-.1.02-.19.05-.26.1-.07.05-.14.11-.21.2-.06.08-.12.18-.18.29-.06.11-.12.24-.19.39v2.04h-.59v-2.19c0-.14,0-.27,0-.38,0-.11,0-.21-.02-.31,0-.1-.03-.2-.05-.29-.02-.1-.05-.2-.08-.32.1-.02.19-.05.28-.07.09-.02.19-.04.28-.06.03.09.06.17.08.24s.04.14.05.21c.01.07.02.14.03.21,0,.07.01.15.02.24h.03Z"/>
        <path class="cls-4" d="M12.57,38.63h.59v3.58c0,.4,0,.66.02.79.01.15.04.32.08.5l-.57.13c-.04-.13-.07-.26-.08-.39-.02-.16-.04-.28-.04-.37h-.05c-.12.25-.25.43-.39.54-.17.15-.39.22-.64.22-.22,0-.42-.05-.58-.15-.16-.1-.29-.23-.38-.4s-.16-.36-.2-.57-.06-.44-.06-.69c0-.28.03-.54.09-.76.06-.23.15-.43.27-.6.12-.17.28-.31.49-.4.2-.09.44-.14.71-.14.21,0,.47.03.76.09v-1.37ZM12.57,42.11v-1.59c-.26-.07-.49-.1-.71-.1-.18,0-.34.03-.48.1-.13.07-.24.16-.31.28-.08.12-.13.26-.16.41-.04.15-.05.32-.05.51,0,.13,0,.24,0,.34,0,.1.02.2.03.31.01.11.04.21.07.29s.07.15.12.22c.05.07.11.12.19.16.08.04.17.05.27.05.24,0,.45-.1.63-.29.13-.14.26-.37.41-.69Z"/>
        <path class="cls-4" d="M16.99,43.35c-.25.1-.49.17-.71.22-.22.04-.42.06-.6.06-.27,0-.5-.04-.7-.13-.2-.09-.37-.21-.5-.36-.13-.15-.23-.34-.3-.56-.07-.22-.1-.45-.1-.71,0-.16.01-.32.03-.48.02-.16.06-.31.11-.46.05-.15.12-.28.2-.41s.18-.23.29-.32c.12-.09.25-.16.41-.22s.33-.08.53-.08c.51,0,.89.16,1.15.48.26.32.39.77.39,1.37v.19h-2.5c0,.19.02.36.06.51.04.15.1.27.19.37.09.1.19.18.33.23s.29.08.47.08c.1,0,.2,0,.3-.02.1-.02.2-.03.29-.06.09-.02.18-.05.27-.08.09-.03.17-.06.24-.09l.17.46ZM16.59,41.48c-.02-.37-.11-.64-.27-.81-.16-.17-.38-.25-.68-.25s-.52.08-.67.25c-.15.17-.25.44-.28.81h1.89Z"/>
        <path class="cls-4" d="M17.99,40.06l.57-.13c.04.14.07.27.09.4,0,.06.02.18.03.37h.07c.13-.23.28-.41.46-.55.2-.15.42-.23.64-.23.34,0,.6.08.78.25.15.14.26.35.32.64.04.2.06.49.06.88v1.87h-.59v-2.04c0-.34-.03-.58-.1-.73-.1-.22-.29-.32-.59-.32-.21,0-.42.1-.62.3-.13.13-.28.33-.43.59v2.2h-.59v-2.19c0-.31,0-.57-.02-.8,0-.14-.04-.31-.09-.51Z"/>
        <path class="cls-4" d="M23.08,39.92c.19,0,.37.02.56.06.19.04.36.09.52.16-.03.07-.06.14-.1.22s-.07.14-.11.21c-.06-.02-.12-.05-.19-.07s-.14-.04-.22-.06-.15-.03-.24-.04c-.08-.01-.16-.02-.24-.02-.08,0-.17,0-.24.03-.08.02-.15.05-.21.08s-.11.09-.15.15c-.04.06-.05.14-.05.23s.02.18.06.24c.04.07.1.12.17.16.07.04.15.08.25.11s.2.06.3.08c.17.04.32.09.46.14.14.05.27.12.37.2.1.08.19.18.25.3.06.12.09.27.09.45,0,.19-.04.35-.11.48s-.17.25-.3.33c-.13.09-.27.15-.44.19-.17.04-.35.06-.54.06-.1,0-.2,0-.31-.02-.11-.01-.21-.03-.31-.05-.1-.02-.21-.05-.31-.09-.1-.03-.19-.07-.28-.11.03-.07.07-.14.1-.21.04-.07.07-.14.11-.21.08.03.16.06.24.09.08.03.17.05.26.07s.18.04.26.05c.09.01.17.02.25.02.1,0,.2-.01.29-.03s.18-.06.25-.11c.07-.05.13-.11.18-.19.04-.08.07-.17.07-.28,0-.1-.02-.19-.06-.25s-.1-.12-.17-.17c-.07-.04-.15-.08-.25-.11-.09-.03-.19-.06-.3-.08-.16-.04-.31-.08-.45-.13s-.27-.12-.37-.2c-.11-.08-.19-.18-.25-.3-.06-.12-.09-.27-.09-.45,0-.17.03-.31.1-.43s.16-.22.28-.3.25-.13.4-.17c.15-.04.31-.06.48-.06Z"/>
        <path class="cls-4" d="M27.77,43.43c-.18.06-.37.11-.57.15-.2.04-.39.06-.57.06-.27,0-.51-.04-.71-.12-.2-.08-.37-.2-.5-.35s-.23-.34-.29-.56c-.06-.22-.1-.48-.1-.76,0-.31.04-.58.12-.82.08-.24.19-.44.34-.6.15-.16.33-.29.55-.37.21-.08.46-.13.73-.13.14,0,.28.01.42.04.14.03.29.06.44.11l-.15.48c-.12-.04-.23-.07-.33-.09s-.21-.03-.32-.03c-.39,0-.69.11-.9.34-.21.22-.31.56-.31,1.02,0,.21.02.4.05.57.03.17.09.31.16.43.08.12.19.21.32.27s.31.09.52.09c.14,0,.29-.02.44-.05.16-.04.33-.08.5-.13l.15.48Z"/>
        <path class="cls-4" d="M28.63,38.63h.59v2.14c.15-.26.33-.46.52-.61.22-.16.44-.25.66-.25.33,0,.58.08.77.25.16.14.27.35.32.64.05.22.07.51.07.88v1.87h-.59v-2.04c0-.14,0-.25,0-.34,0-.09-.02-.18-.05-.28-.03-.1-.06-.18-.11-.23-.05-.06-.12-.1-.21-.14s-.19-.05-.32-.05c-.22,0-.42.1-.62.31-.13.13-.27.33-.43.59v2.19h-.59v-4.92Z"/>
        <path class="cls-4" d="M35.8,43.55h-.78l-.43-1.65-.69,1.65h-.77l-.91-3.56h.59l.75,3.13.83-2.05-.28-1.08h.59l.77,3.13c.25-.57.42-1,.52-1.29.12-.35.18-.65.18-.9,0-.22-.05-.51-.16-.89.21-.05.4-.09.56-.13.1.23.16.49.18.76,0,.07,0,.14,0,.21,0,.37-.1.81-.31,1.31-.06.13-.12.27-.19.43-.07.15-.16.33-.25.53-.1.2-.16.33-.19.4Z"/>
        <path class="cls-4" d="M37.88,40.63l-.15-.48c.38-.15.78-.23,1.2-.23.37,0,.65.06.84.18.22.14.33.38.33.72v1.4c0,.19,0,.38,0,.57,0,.12.01.24.03.36.02.12.04.23.07.34l-.56.12c-.05-.15-.09-.32-.1-.51h-.07c-.28.35-.64.53-1.08.53-.32,0-.58-.09-.77-.26-.19-.18-.29-.43-.29-.75,0-.24.05-.44.16-.59.11-.15.26-.28.45-.39.31-.17.73-.25,1.28-.25.07,0,.17,0,.29,0v-.52c0-.16-.05-.28-.15-.36-.1-.07-.26-.11-.47-.11-.31,0-.66.07-1.03.21ZM39.53,42.55v-.72c-.06,0-.15,0-.27,0-.2,0-.38.02-.55.05-.25.05-.45.13-.58.24-.14.11-.21.26-.21.47,0,.36.2.55.59.55.21,0,.4-.05.57-.16.15-.09.29-.23.45-.41Z"/>
        <path class="cls-4" d="M41.86,40.82c.07-.14.15-.27.23-.38s.17-.21.27-.29c.09-.08.19-.13.29-.17.11-.04.23-.06.37-.06.04,0,.1,0,.16,0s.12.01.17.02c0,.11-.02.22-.03.32s-.03.2-.05.3c-.11-.02-.22-.04-.31-.04s-.18,0-.27,0c-.1.02-.19.05-.26.1-.07.05-.14.11-.21.2-.06.08-.12.18-.18.29-.06.11-.12.24-.19.39v2.04h-.59v-2.19c0-.14,0-.27,0-.38,0-.11,0-.21-.02-.31,0-.1-.03-.2-.05-.29-.02-.1-.05-.2-.08-.32.1-.02.19-.05.28-.07.09-.02.19-.04.28-.06.03.09.06.17.08.24s.04.14.05.21c.01.07.02.14.03.21,0,.07.01.15.02.24h.03Z"/>
        <path class="cls-4" d="M44.39,39.18h.59v.81h1.2v.5h-1.2v2.04c0,.14,0,.24.01.31,0,.07.03.13.06.17.06.08.18.12.36.12.1,0,.2-.01.29-.03.1-.02.18-.04.26-.07.06.14.12.29.17.46-.27.09-.54.14-.81.14-.2,0-.36-.02-.48-.07-.12-.04-.21-.12-.28-.22-.07-.1-.12-.23-.14-.38s-.03-.35-.03-.6v-1.88h-.51v-.5h.51v-.81Z"/>
        <path class="cls-4" d="M47.81,40.49c-.09,0-.18,0-.26,0-.08,0-.15,0-.22-.02-.07,0-.14-.02-.22-.04s-.15-.04-.24-.08c.03-.08.06-.16.09-.24s.06-.16.09-.25c.09.03.17.05.24.07.07.02.14.03.21.04.07,0,.14.01.21.02s.16,0,.26,0h1.44v.41l-1.78,2.65h1.81v.5h-2.55v-.41l1.78-2.65h-.85Z"/>
        <path class="cls-4" d="M50.13,40.4l1.22-.55.3.15v3.55h-.59v-2.99l-.72.3-.21-.47Z"/>
        <path class="cls-4" d="M54.13,39.85c.17,0,.32.02.46.06.14.04.27.1.38.18.11.08.2.19.27.32.06.14.1.29.1.47,0,.15-.02.28-.05.39-.06.2-.21.37-.42.5-.11.07-.35.18-.71.34,0,0-.01,0-.02,0,0,0-.01,0-.02,0,0,0,0,0-.02,0-.13.06-.22.09-.25.11-.04.02-.1.06-.18.11s-.14.11-.16.16c-.02.05-.05.12-.08.21s-.04.19-.04.31h1.88v.51h-2.47v-.48c0-.17.02-.33.06-.47.04-.14.09-.25.16-.35s.15-.19.27-.27c.12-.08.23-.15.34-.21.11-.06.25-.12.43-.19.13-.05.23-.09.29-.13.07-.03.13-.07.21-.13.07-.05.12-.12.15-.19s.04-.15.04-.25c0-.19-.06-.33-.18-.42s-.28-.13-.49-.13c-.33,0-.67.09-1.03.26l-.18-.44c.41-.21.84-.31,1.27-.31Z"/>
        <path class="cls-4" d="M58.58,44.28c-.23,0-.45-.03-.66-.09-.21-.06-.41-.14-.59-.25-.18-.11-.35-.23-.5-.38s-.28-.32-.38-.5c-.11-.18-.19-.38-.25-.59-.06-.21-.09-.43-.09-.66s.03-.45.09-.66c.06-.21.14-.41.25-.59.11-.18.24-.35.38-.5s.32-.28.5-.38c.18-.11.38-.19.59-.25.21-.06.43-.09.66-.09s.44.03.65.09.41.14.59.25.35.24.5.39.28.32.39.5c.11.18.19.38.25.59.06.21.09.43.09.65,0,.45-.12.79-.35,1.01s-.6.33-1.08.33c-.07,0-.15,0-.24,0-.08,0-.17-.01-.25-.03-.02-.07-.03-.13-.04-.18,0-.02,0-.04,0-.05s0-.04,0-.05c0-.02,0-.04,0-.07v-.11c0-.08,0-.15,0-.21,0-.06,0-.11,0-.16h-.03c-.04.11-.08.23-.13.33-.05.1-.11.19-.18.27-.07.08-.15.14-.24.18-.09.04-.19.07-.3.07s-.2-.02-.28-.06c-.08-.04-.15-.1-.2-.17s-.1-.15-.14-.24-.06-.19-.08-.29c-.01-.07-.02-.13-.03-.2,0-.07,0-.14,0-.21,0-.18.02-.35.06-.52.04-.17.11-.33.21-.47s.22-.25.38-.34.36-.13.59-.13.53.04.85.12l-.04.92c0,.06,0,.13,0,.22s0,.19,0,.28c0,.1,0,.19,0,.29,0,.09,0,.17,0,.24v.07s0,.04,0,.05v.03s0,.02,0,.03c.05,0,.09.01.13.01.04,0,.08,0,.12,0,.15,0,.27-.02.38-.07s.2-.11.27-.2c.07-.08.13-.19.16-.31.04-.12.05-.25.05-.39,0-.19-.02-.37-.07-.54s-.12-.34-.21-.49c-.09-.15-.2-.29-.32-.42-.12-.13-.26-.23-.42-.32s-.31-.16-.49-.21c-.17-.05-.35-.07-.54-.07s-.37.02-.54.07c-.17.05-.33.12-.49.21s-.29.2-.42.32c-.12.13-.23.26-.32.42-.09.15-.16.31-.21.49s-.07.35-.07.54.03.37.07.54.12.34.21.49c.09.15.2.29.32.42.13.13.26.23.42.32s.31.16.49.21c.17.05.35.07.54.07h.1v.42h-.1ZM59.11,40.92c-.06,0-.12-.02-.17-.02-.06,0-.12-.01-.18-.01-.18,0-.33.03-.44.1s-.21.15-.27.26c-.07.1-.11.22-.14.35-.02.13-.04.26-.04.38,0,.14,0,.27.03.38.02.11.06.2.11.28s.13.11.23.11c.06,0,.11-.01.17-.04s.1-.07.14-.12c.06-.06.11-.13.16-.21.05-.08.1-.17.15-.25.04-.09.08-.18.12-.26.04-.09.06-.17.09-.24l.04-.69Z"/>
        <path class="cls-4" d="M64.09,40c.1,0,.18,0,.26,0s.15,0,.21-.02c.07,0,.14-.02.21-.04s.15-.04.24-.07c.03.09.06.17.09.25s.06.16.09.24c-.07.03-.14.05-.2.06s-.12.03-.18.04c-.06,0-.12.02-.18.02-.06,0-.12,0-.19,0,.06.1.11.22.15.35s.05.27.05.42c0,.22-.03.41-.1.57-.07.16-.16.3-.28.42s-.27.2-.44.26c-.17.06-.37.09-.58.09-.11,0-.21,0-.31-.02-.1-.01-.19-.04-.28-.07-.02.05-.04.11-.05.17s-.02.11-.02.16c0,.05.01.1.03.14.02.04.05.08.1.1.02.01.05.02.07.03.03,0,.06.02.09.02.04,0,.08.01.13.01.05,0,.11,0,.18,0,.07,0,.15,0,.24,0h.32c.36,0,.62.07.81.22.18.15.27.38.27.7,0,.13-.02.24-.06.34-.04.1-.1.19-.17.26-.07.07-.16.13-.25.18-.1.05-.2.09-.32.12-.11.03-.23.05-.36.06-.12.01-.25.02-.37.02s-.25,0-.38-.02c-.13-.01-.25-.03-.37-.05-.12-.02-.23-.04-.34-.07-.11-.03-.2-.05-.28-.08.03-.08.07-.15.11-.23s.08-.15.13-.22c.14.04.31.08.51.12s.42.06.66.06c.11,0,.22,0,.32-.02.11-.01.2-.04.29-.08.09-.04.15-.09.21-.15.05-.06.08-.14.08-.24s-.02-.19-.06-.24c-.04-.06-.09-.1-.15-.13s-.14-.04-.23-.05-.18,0-.27,0h-.45c-.13,0-.26-.01-.38-.03s-.22-.06-.31-.1c-.09-.05-.16-.11-.21-.19-.05-.08-.08-.18-.08-.29s.02-.23.06-.35c.04-.12.09-.24.16-.36-.15-.11-.27-.25-.35-.43s-.12-.39-.12-.62c0-.21.03-.4.1-.57.07-.17.16-.31.29-.42s.27-.2.44-.26c.17-.06.36-.09.58-.09.2,0,.38.03.55.08h.31ZM63.23,40.39c-.14,0-.27.02-.37.06s-.19.1-.25.18c-.07.08-.11.17-.14.27-.03.11-.05.22-.05.35s.02.24.05.35c.03.1.08.2.14.27.07.08.15.14.25.18.1.04.22.06.37.06s.27-.02.37-.06c.1-.04.19-.1.25-.18.07-.08.11-.17.14-.27.03-.11.05-.22.05-.35s-.02-.24-.05-.35c-.03-.11-.08-.2-.14-.27-.06-.08-.15-.14-.25-.18s-.23-.06-.37-.06Z"/>
        <path class="cls-4" d="M65.88,43.55v-2.2c0-.35,0-.62-.02-.79,0-.14-.04-.31-.09-.51l.56-.13c.04.14.07.27.09.4,0,.05.02.17.03.37h.07c.12-.23.26-.41.44-.55.19-.15.4-.23.65-.23.14,0,.27.02.4.07.13.05.23.12.32.21.13.13.22.32.28.57h.04c.14-.26.3-.47.48-.61.2-.16.42-.24.67-.24.3,0,.53.08.69.25.14.14.24.35.29.64.04.21.06.5.06.87v1.88h-.59v-2.04c0-.18-.01-.33-.03-.44-.03-.18-.09-.32-.17-.42-.1-.12-.25-.18-.43-.18-.21,0-.4.1-.58.3-.11.12-.23.31-.38.56,0,.04,0,.1,0,.17v2.06h-.59v-2.04c0-.29-.03-.51-.09-.67-.1-.25-.28-.38-.54-.38-.21,0-.4.1-.58.31-.11.12-.24.32-.39.59v2.19h-.59Z"/>
        <path class="cls-4" d="M72.04,40.63l-.15-.48c.38-.15.78-.23,1.2-.23.37,0,.65.06.84.18.22.14.33.38.33.72v1.4c0,.19,0,.38,0,.57,0,.12.01.24.03.36.02.12.04.23.07.34l-.56.12c-.05-.15-.09-.32-.1-.51h-.07c-.28.35-.64.53-1.08.53-.32,0-.58-.09-.77-.26-.19-.18-.29-.43-.29-.75,0-.24.05-.44.16-.59.11-.15.26-.28.45-.39.31-.17.73-.25,1.28-.25.07,0,.17,0,.29,0v-.52c0-.16-.05-.28-.15-.36-.1-.07-.26-.11-.47-.11-.31,0-.66.07-1.03.21ZM73.7,42.55v-.72c-.06,0-.15,0-.27,0-.2,0-.38.02-.55.05-.25.05-.45.13-.58.24-.14.11-.21.26-.21.47,0,.36.2.55.59.55.21,0,.4-.05.57-.16.15-.09.29-.23.45-.41Z"/>
        <path class="cls-4" d="M75.74,38.62c.1,0,.2.04.27.11.07.08.11.17.11.28s-.04.2-.11.28c-.08.08-.17.12-.27.12s-.2-.04-.28-.12c-.08-.07-.12-.17-.12-.28s.04-.2.12-.28c.08-.07.17-.11.28-.11ZM75.44,40h.59v3.55h-.59v-3.55Z"/>
        <path class="cls-4" d="M77.74,42.17c0,.19,0,.34,0,.47,0,.13.01.24.02.33,0,.1.02.18.03.26s.03.16.06.26c-.1.02-.19.05-.29.07-.1.02-.19.04-.29.06-.05-.15-.08-.28-.1-.41s-.03-.24-.03-.36v-4.21h.59v3.53Z"/>
        <path class="cls-4" d="M79.4,42.79c.06,0,.11.01.16.03.05.02.1.05.13.09.08.08.12.18.12.3s-.04.21-.12.29c-.04.04-.08.07-.13.09-.05.02-.11.03-.16.03s-.11-.01-.16-.03c-.05-.02-.09-.05-.13-.09-.04-.04-.07-.08-.09-.13s-.03-.1-.03-.16.01-.11.03-.16c.02-.05.05-.1.09-.14.08-.08.18-.12.29-.12Z"/>
        <path class="cls-4" d="M83.56,43.43c-.18.06-.37.11-.57.15-.2.04-.39.06-.57.06-.27,0-.51-.04-.71-.12-.2-.08-.37-.2-.5-.35s-.23-.34-.29-.56c-.06-.22-.1-.48-.1-.76,0-.31.04-.58.12-.82.08-.24.19-.44.34-.6.15-.16.33-.29.55-.37.21-.08.46-.13.73-.13.14,0,.28.01.42.04.14.03.29.06.44.11l-.15.48c-.12-.04-.23-.07-.33-.09s-.21-.03-.32-.03c-.39,0-.69.11-.9.34-.21.22-.31.56-.31,1.02,0,.21.02.4.05.57.03.17.09.31.16.43.08.12.19.21.32.27s.31.09.52.09c.14,0,.29-.02.44-.05.16-.04.33-.08.5-.13l.15.48Z"/>
        <path class="cls-4" d="M85.73,39.92c.11,0,.23,0,.35.03.12.02.24.05.36.1.12.05.23.12.33.2.1.08.2.2.28.33.08.14.14.31.19.5.04.19.07.43.07.7s-.02.5-.07.7c-.05.2-.11.36-.19.5-.08.14-.17.25-.28.34s-.21.15-.33.2c-.12.05-.24.08-.36.1-.12.02-.24.03-.35.03s-.22,0-.34-.03c-.12-.02-.24-.05-.35-.1-.12-.05-.22-.12-.33-.2-.1-.09-.19-.2-.27-.34-.08-.14-.14-.3-.19-.5-.05-.19-.07-.43-.07-.7s.02-.5.07-.7c.05-.2.11-.36.19-.5.08-.14.17-.25.27-.33.1-.09.21-.15.33-.2.12-.05.23-.08.35-.1.12-.02.23-.03.34-.03ZM85.73,40.4c-.13,0-.25.02-.37.06s-.22.11-.3.22c-.09.1-.16.25-.21.42-.05.18-.08.4-.08.68s.03.5.08.67c.05.18.12.32.21.42.09.1.19.18.3.22.12.04.24.06.37.06s.26-.02.38-.06c.12-.04.22-.11.31-.22.09-.1.16-.24.21-.42.05-.18.08-.4.08-.67s-.03-.5-.08-.68c-.05-.18-.12-.32-.21-.42-.09-.1-.19-.17-.31-.22s-.24-.06-.38-.06Z"/>
        <path class="cls-4" d="M88.21,43.55v-2.2c0-.35,0-.62-.02-.79,0-.14-.04-.31-.09-.51l.56-.13c.04.14.07.27.09.4,0,.05.02.17.03.37h.07c.12-.23.26-.41.44-.55.19-.15.4-.23.65-.23.14,0,.27.02.4.07.13.05.23.12.32.21.13.13.22.32.28.57h.04c.14-.26.3-.47.48-.61.2-.16.42-.24.67-.24.3,0,.53.08.69.25.14.14.24.35.29.64.04.21.06.5.06.87v1.88h-.59v-2.04c0-.18-.01-.33-.03-.44-.03-.18-.09-.32-.17-.42-.1-.12-.25-.18-.43-.18-.21,0-.4.1-.58.3-.11.12-.23.31-.38.56,0,.04,0,.1,0,.17v2.06h-.59v-2.04c0-.29-.03-.51-.09-.67-.1-.25-.28-.38-.54-.38-.21,0-.4.1-.58.31-.11.12-.24.32-.39.59v2.19h-.59Z"/>
      </g>
      <g>
        <rect class="cls-1" x="127.97" y=".6" width="15.92" height="15.92"/>
        <rect class="cls-1" x="147.65" y="20.27" width="15.92" height="15.92"/>
        <rect class="cls-2" x="127.97" y="39.95" width="15.92" height="15.92"/>
        <rect class="cls-2" x="167.32" y=".6" width="15.92" height="15.92"/>
        <rect class="cls-2" x="157.04" y="12.72" width="15.92" height="15.92"/>
        <rect class="cls-2" x="139.69" y="28.23" width="15.92" height="15.92"/>
        <rect class="cls-1" x="167.32" y="39.95" width="15.92" height="15.92"/>
        <polygon class="cls-5" points="133 24.37 128.53 24.37 126.3 28.23 128.53 32.1 133 32.1 135.23 28.23 133 24.37"/>
        <polygon class="cls-5" points="151.74 2.23 151.74 6.7 155.61 8.93 159.47 6.7 159.47 2.23 155.61 0 151.74 2.23"/>
        <polygon class="cls-5" points="171.41 49.5 174.57 52.66 178.88 51.5 180.03 47.19 176.88 44.03 172.56 45.19 171.41 49.5"/>
        <polygon class="cls-5" points="131.62 9.71 134.78 12.87 139.09 11.72 140.25 7.4 137.09 4.25 132.78 5.4 131.62 9.71"/>
        <polygon class="cls-5" points="151.74 49.77 151.74 54.23 155.61 56.46 159.47 54.23 159.47 49.77 155.61 47.54 151.74 49.77"/>
        <polygon class="cls-5" points="182.68 24.37 178.22 24.37 175.99 28.23 178.22 32.1 182.68 32.1 184.91 28.23 182.68 24.37"/>
        <polygon class="cls-3" points="169.38 33.03 163.17 33.03 160.07 38.41 163.17 43.79 169.38 43.79 172.49 38.41 169.38 33.03"/>
        <polygon class="cls-3" points="149 12.72 142.79 12.72 139.69 18.1 142.79 23.48 149 23.48 152.11 18.1 149 12.72"/>
      </g>
    </g>
  </g>
</svg>